<?xml version="1.0" encoding="UTF-8" standalone="no"?>
<!DOCTYPE svg PUBLIC "-//W3C//DTD SVG 1.1//EN"
 "http://www.w3.org/Graphics/SVG/1.1/DTD/svg11.dtd">
<!-- Generated by graphviz version 2.43.0 (0)
 -->
<!-- Title: ContinuousIntegrationSystem Pages: 1 -->
<svg width="698pt" height="544pt"
 viewBox="0.00 0.00 698.22 544.00" xmlns="http://www.w3.org/2000/svg" xmlns:xlink="http://www.w3.org/1999/xlink">
<g id="graph0" class="graph" transform="scale(1 1) rotate(0) translate(4 540)">
<title>ContinuousIntegrationSystem</title>
<polygon fill="white" stroke="transparent" points="-4,4 -4,-540 694.22,-540 694.22,4 -4,4"/>
<text text-anchor="middle" x="345.11" y="-519.2" font-family="Helvetica,sans-Serif" font-weight="bold" font-size="16.00">Continuous Integration System Overview</text>
<g id="clust1" class="cluster">
<title>cluster_Developers</title>
<polygon fill="none" stroke="gray" stroke-dasharray="5,2" points="25.22,-253 25.22,-502 145.22,-502 145.22,-253 25.22,-253"/>
<text text-anchor="middle" x="85.22" y="-486.8" font-family="Helvetica,sans-Serif" font-weight="bold" font-size="14.00">Developers</text>
</g>
<!-- Developer1 -->
<g id="node1" class="node">
<title>Developer1</title>
<path fill="none" stroke="black" d="M124.72,-471C124.72,-471 45.72,-471 45.72,-471 39.72,-471 33.72,-465 33.72,-459 33.72,-459 33.72,-447 33.72,-447 33.72,-441 39.72,-435 45.72,-435 45.72,-435 124.72,-435 124.72,-435 130.72,-435 136.72,-441 136.72,-447 136.72,-447 136.72,-459 136.72,-459 136.72,-465 130.72,-471 124.72,-471"/>
<text text-anchor="middle" x="85.22" y="-449.3" font-family="Times,serif" font-size="14.00">Developer 1</text>
</g>
<!-- Developer2 -->
<g id="node2" class="node">
<title>Developer2</title>
<path fill="none" stroke="black" d="M124.72,-384C124.72,-384 45.72,-384 45.72,-384 39.72,-384 33.72,-378 33.72,-372 33.72,-372 33.72,-360 33.72,-360 33.72,-354 39.72,-348 45.72,-348 45.72,-348 124.72,-348 124.72,-348 130.72,-348 136.72,-354 136.72,-360 136.72,-360 136.72,-372 136.72,-372 136.72,-378 130.72,-384 124.72,-384"/>
<text text-anchor="middle" x="85.22" y="-362.3" font-family="Times,serif" font-size="14.00">Developer 2</text>
</g>
<!-- Developer1&#45;&gt;Developer2 -->
<!-- VersionControl -->
<g id="node4" class="node">
<title>VersionControl</title>
<path fill="none" stroke="blue" d="M558.72,-380.73C558.72,-382.53 495.74,-384 418.22,-384 340.69,-384 277.72,-382.53 277.72,-380.73 277.72,-380.73 277.72,-351.27 277.72,-351.27 277.72,-349.47 340.69,-348 418.22,-348 495.74,-348 558.72,-349.47 558.72,-351.27 558.72,-351.27 558.72,-380.73 558.72,-380.73"/>
<path fill="none" stroke="blue" d="M558.72,-380.73C558.72,-378.92 495.74,-377.45 418.22,-377.45 340.69,-377.45 277.72,-378.92 277.72,-380.73"/>
<text text-anchor="middle" x="418.22" y="-362.3" font-family="Times,serif" font-size="14.00">Version Control Repository (e.g., Git)</text>
</g>
<!-- Developer1&#45;&gt;VersionControl -->
<g id="edge1" class="edge">
<title>Developer1&#45;&gt;VersionControl</title>
<path fill="none" stroke="black" d="M136.88,-438.81C191.68,-424.82 278.83,-402.58 341.62,-386.55"/>
<polygon fill="black" stroke="black" points="342.65,-389.9 351.48,-384.04 340.92,-383.12 342.65,-389.9"/>
<text text-anchor="middle" x="332.72" y="-405.8" font-family="Times,serif" font-size="14.00">Commit Changes</text>
</g>
<!-- Developer3 -->
<g id="node3" class="node">
<title>Developer3</title>
<path fill="none" stroke="black" d="M124.72,-297C124.72,-297 45.72,-297 45.72,-297 39.72,-297 33.72,-291 33.72,-285 33.72,-285 33.72,-273 33.72,-273 33.72,-267 39.72,-261 45.72,-261 45.72,-261 124.72,-261 124.72,-261 130.72,-261 136.72,-267 136.72,-273 136.72,-273 136.72,-285 136.72,-285 136.72,-291 130.72,-297 124.72,-297"/>
<text text-anchor="middle" x="85.22" y="-275.3" font-family="Times,serif" font-size="14.00">Developer 3</text>
</g>
<!-- Developer2&#45;&gt;Developer3 -->
<!-- Developer2&#45;&gt;VersionControl -->
<g id="edge2" class="edge">
<title>Developer2&#45;&gt;VersionControl</title>
<path fill="none" stroke="black" d="M136.88,-366C172.03,-366 220.48,-366 267.28,-366"/>
<polygon fill="black" stroke="black" points="267.55,-369.5 277.55,-366 267.55,-362.5 267.55,-369.5"/>
<text text-anchor="middle" x="207.22" y="-372.8" font-family="Times,serif" font-size="14.00">Commit Changes</text>
</g>
<!-- Developer3&#45;&gt;VersionControl -->
<g id="edge3" class="edge">
<title>Developer3&#45;&gt;VersionControl</title>
<path fill="none" stroke="black" d="M137.07,-293.45C176.14,-303.56 231.02,-317.72 279.22,-330 299.02,-335.05 320.43,-340.46 340.36,-345.48"/>
<polygon fill="black" stroke="black" points="339.78,-348.94 350.33,-347.99 341.49,-342.15 339.78,-348.94"/>
<text text-anchor="middle" x="340.72" y="-318.8" font-family="Times,serif" font-size="14.00">Commit Changes</text>
</g>
<!-- CIServer -->
<g id="node5" class="node">
<title>CIServer</title>
<path fill="none" stroke="orange" d="M529.72,-297C529.72,-297 266.72,-297 266.72,-297 260.72,-297 254.72,-291 254.72,-285 254.72,-285 254.72,-273 254.72,-273 254.72,-267 260.72,-261 266.72,-261 266.72,-261 529.72,-261 529.72,-261 535.72,-261 541.72,-267 541.72,-273 541.72,-273 541.72,-285 541.72,-285 541.72,-291 535.72,-297 529.72,-297"/>
<text text-anchor="middle" x="398.22" y="-275.3" font-family="Times,serif" font-size="14.00">CI Server (Integration Build Machine)</text>
</g>
<!-- VersionControl&#45;&gt;CIServer -->
<g id="edge4" class="edge">
<title>VersionControl&#45;&gt;CIServer</title>
<path fill="none" stroke="black" d="M414.17,-347.8C411.43,-336.16 407.76,-320.55 404.63,-307.24"/>
<polygon fill="black" stroke="black" points="407.96,-306.11 402.26,-297.18 401.14,-307.71 407.96,-306.11"/>
<text text-anchor="middle" x="468.22" y="-318.8" font-family="Times,serif" font-size="14.00">Poll for Changes</text>
</g>
<!-- BuildScript -->
<g id="node6" class="node">
<title>BuildScript</title>
<polygon fill="lightyellow" stroke="black" points="447.72,-210 266.72,-210 266.72,-127 453.72,-127 453.72,-204 447.72,-210"/>
<polyline fill="none" stroke="black" points="447.72,-210 447.72,-204 "/>
<polyline fill="none" stroke="black" points="453.72,-204 447.72,-204 "/>
<text text-anchor="middle" x="360.22" y="-194.8" font-family="Times,serif" font-size="14.00">Build Script</text>
<text text-anchor="middle" x="360.22" y="-179.8" font-family="Times,serif" font-size="14.00">&#45; Compile Source Code</text>
<text text-anchor="middle" x="360.22" y="-164.8" font-family="Times,serif" font-size="14.00">&#45; Integrate Database</text>
<text text-anchor="middle" x="360.22" y="-149.8" font-family="Times,serif" font-size="14.00">&#45; Run Tests, Inspections</text>
<text text-anchor="middle" x="360.22" y="-134.8" font-family="Times,serif" font-size="14.00">&#45; Deploy Software</text>
</g>
<!-- CIServer&#45;&gt;BuildScript -->
<g id="edge5" class="edge">
<title>CIServer&#45;&gt;BuildScript</title>
<path fill="none" stroke="black" d="M392.11,-260.57C388.22,-249.46 382.97,-234.46 377.85,-219.84"/>
<polygon fill="black" stroke="black" points="381.13,-218.61 374.52,-210.33 374.52,-220.92 381.13,-218.61"/>
<text text-anchor="middle" x="414.22" y="-231.8" font-family="Times,serif" font-size="14.00">Execute</text>
</g>
<!-- FeedbackMechanism -->
<g id="node7" class="node">
<title>FeedbackMechanism</title>
<polygon fill="lightblue" stroke="black" points="458.71,-76 177.95,-76 105.72,0 386.49,0 458.71,-76"/>
<text text-anchor="middle" x="282.22" y="-41.8" font-family="Times,serif" font-size="14.00">Feedback Mechanism</text>
<text text-anchor="middle" x="282.22" y="-26.8" font-family="Times,serif" font-size="14.00">(e.g., Email Results)</text>
</g>
<!-- BuildScript&#45;&gt;FeedbackMechanism -->
<g id="edge6" class="edge">
<title>BuildScript&#45;&gt;FeedbackMechanism</title>
<path fill="none" stroke="black" d="M335.54,-126.84C327.48,-113.57 318.48,-98.74 310.2,-85.1"/>
<polygon fill="black" stroke="black" points="313.06,-83.07 304.88,-76.34 307.08,-86.7 313.06,-83.07"/>
<text text-anchor="middle" x="392.72" y="-97.8" font-family="Times,serif" font-size="14.00">Generate Feedback</text>
</g>
<!-- FeedbackMechanism&#45;&gt;Developer1 -->
<g id="edge7" class="edge">
<title>FeedbackMechanism&#45;&gt;Developer1</title>
<path fill="none" stroke="black" d="M432.04,-47.61C509.17,-61.08 587.22,-93.09 587.22,-167.5 587.22,-367 587.22,-367 587.22,-367 587.22,-411.15 281.45,-438.16 147.19,-447.89"/>
<polygon fill="black" stroke="black" points="146.78,-444.41 137.05,-448.62 147.27,-451.39 146.78,-444.41"/>
<text text-anchor="middle" x="638.72" y="-275.3" font-family="Times,serif" font-size="14.00">Notify Results</text>
</g>
<!-- FeedbackMechanism&#45;&gt;Developer2 -->
<g id="edge8" class="edge">
<title>FeedbackMechanism&#45;&gt;Developer2</title>
<path fill="none" stroke="black" d="M180.88,-76.05C116.26,-105.91 38.6,-155.08 5.22,-228 -13.73,-269.38 25.11,-314.42 55.04,-341.15"/>
<polygon fill="black" stroke="black" points="52.94,-343.97 62.8,-347.86 57.52,-338.68 52.94,-343.97"/>
<text text-anchor="middle" x="56.72" y="-231.8" font-family="Times,serif" font-size="14.00">Notify Results</text>
</g>
<!-- FeedbackMechanism&#45;&gt;Developer3 -->
<g id="edge9" class="edge">
<title>FeedbackMechanism&#45;&gt;Developer3</title>
<path fill="none" stroke="black" d="M212.58,-76.19C191.91,-89.92 170.68,-107.08 155.22,-127 121.51,-170.44 138.87,-194.91 112.22,-243 110.4,-246.28 108.29,-249.58 106.07,-252.78"/>
<polygon fill="black" stroke="black" points="103.19,-250.8 100.05,-260.92 108.81,-254.96 103.19,-250.8"/>
<text text-anchor="middle" x="206.72" y="-164.8" font-family="Times,serif" font-size="14.00">Notify Results</text>
</g>
</g>
</svg>
