<?xml version="1.0" encoding="UTF-8" standalone="no"?>
<!DOCTYPE svg PUBLIC "-//W3C//DTD SVG 1.1//EN"
 "http://www.w3.org/Graphics/SVG/1.1/DTD/svg11.dtd">
<!-- Generated by graphviz version 2.43.0 (0)
 -->
<!-- Title: ContinuousIntegrationPrinciples Pages: 1 -->
<svg width="488pt" height="139pt"
 viewBox="0.00 0.00 487.50 139.00" xmlns="http://www.w3.org/2000/svg" xmlns:xlink="http://www.w3.org/1999/xlink">
<g id="graph0" class="graph" transform="scale(1 1) rotate(0) translate(4 135)">
<title>ContinuousIntegrationPrinciples</title>
<polygon fill="white" stroke="transparent" points="-4,4 -4,-135 483.5,-135 483.5,4 -4,4"/>
<text text-anchor="middle" x="239.75" y="-115.8" font-family="Times,serif" font-size="14.00">Continuous Integration Principles</text>
<!-- CommitCodeFrequently -->
<g id="node1" class="node">
<title>CommitCodeFrequently</title>
<path fill="none" stroke="black" d="M85.5,-108C85.5,-108 19.5,-108 19.5,-108 13.5,-108 7.5,-102 7.5,-96 7.5,-96 7.5,-84 7.5,-84 7.5,-78 13.5,-72 19.5,-72 19.5,-72 85.5,-72 85.5,-72 91.5,-72 97.5,-78 97.5,-84 97.5,-84 97.5,-96 97.5,-96 97.5,-102 91.5,-108 85.5,-108"/>
<text text-anchor="middle" x="52.5" y="-93.4" font-family="Arial" font-size="12.00">Commit Code</text>
<text text-anchor="middle" x="52.5" y="-80.4" font-family="Arial" font-size="12.00">Frequently</text>
</g>
<!-- WriteAutomatedDeveloperTests -->
<g id="node4" class="node">
<title>WriteAutomatedDeveloperTests</title>
<path fill="none" stroke="black" d="M93,-36C93,-36 12,-36 12,-36 6,-36 0,-30 0,-24 0,-24 0,-12 0,-12 0,-6 6,0 12,0 12,0 93,0 93,0 99,0 105,-6 105,-12 105,-12 105,-24 105,-24 105,-30 99,-36 93,-36"/>
<text text-anchor="middle" x="52.5" y="-21.4" font-family="Arial" font-size="12.00">Write Automated</text>
<text text-anchor="middle" x="52.5" y="-8.4" font-family="Arial" font-size="12.00">Developer Tests</text>
</g>
<!-- CommitCodeFrequently&#45;&gt;WriteAutomatedDeveloperTests -->
<!-- DontCommitBrokenCode -->
<g id="node2" class="node">
<title>DontCommitBrokenCode</title>
<path fill="none" stroke="black" d="M224,-108C224,-108 159,-108 159,-108 153,-108 147,-102 147,-96 147,-96 147,-84 147,-84 147,-78 153,-72 159,-72 159,-72 224,-72 224,-72 230,-72 236,-78 236,-84 236,-84 236,-96 236,-96 236,-102 230,-108 224,-108"/>
<text text-anchor="middle" x="191.5" y="-93.4" font-family="Arial" font-size="12.00">Don&#39;t Commit</text>
<text text-anchor="middle" x="191.5" y="-80.4" font-family="Arial" font-size="12.00">Broken Code</text>
</g>
<!-- AllTestsMustPass -->
<g id="node5" class="node">
<title>AllTestsMustPass</title>
<path fill="none" stroke="black" d="M247.5,-36C247.5,-36 135.5,-36 135.5,-36 129.5,-36 123.5,-30 123.5,-24 123.5,-24 123.5,-12 123.5,-12 123.5,-6 129.5,0 135.5,0 135.5,0 247.5,0 247.5,0 253.5,0 259.5,-6 259.5,-12 259.5,-12 259.5,-24 259.5,-24 259.5,-30 253.5,-36 247.5,-36"/>
<text text-anchor="middle" x="191.5" y="-21.4" font-family="Arial" font-size="12.00">All Tests and</text>
<text text-anchor="middle" x="191.5" y="-8.4" font-family="Arial" font-size="12.00">Inspections Must Pass</text>
</g>
<!-- DontCommitBrokenCode&#45;&gt;AllTestsMustPass -->
<!-- FixBrokenBuildsImmediately -->
<g id="node3" class="node">
<title>FixBrokenBuildsImmediately</title>
<path fill="none" stroke="black" d="M361,-108C361,-108 274,-108 274,-108 268,-108 262,-102 262,-96 262,-96 262,-84 262,-84 262,-78 268,-72 274,-72 274,-72 361,-72 361,-72 367,-72 373,-78 373,-84 373,-84 373,-96 373,-96 373,-102 367,-108 361,-108"/>
<text text-anchor="middle" x="317.5" y="-93.4" font-family="Arial" font-size="12.00">Fix Broken Builds</text>
<text text-anchor="middle" x="317.5" y="-80.4" font-family="Arial" font-size="12.00">Immediately</text>
</g>
<!-- RunPrivateBuilds -->
<g id="node6" class="node">
<title>RunPrivateBuilds</title>
<path fill="none" stroke="black" d="M345.5,-36C345.5,-36 289.5,-36 289.5,-36 283.5,-36 277.5,-30 277.5,-24 277.5,-24 277.5,-12 277.5,-12 277.5,-6 283.5,0 289.5,0 289.5,0 345.5,0 345.5,0 351.5,0 357.5,-6 357.5,-12 357.5,-12 357.5,-24 357.5,-24 357.5,-30 351.5,-36 345.5,-36"/>
<text text-anchor="middle" x="317.5" y="-21.4" font-family="Arial" font-size="12.00">Run Private</text>
<text text-anchor="middle" x="317.5" y="-8.4" font-family="Arial" font-size="12.00">Builds</text>
</g>
<!-- FixBrokenBuildsImmediately&#45;&gt;RunPrivateBuilds -->
<!-- AvoidGettingBrokenCode -->
<g id="node7" class="node">
<title>AvoidGettingBrokenCode</title>
<path fill="none" stroke="black" d="M467.5,-108C467.5,-108 403.5,-108 403.5,-108 397.5,-108 391.5,-102 391.5,-96 391.5,-96 391.5,-84 391.5,-84 391.5,-78 397.5,-72 403.5,-72 403.5,-72 467.5,-72 467.5,-72 473.5,-72 479.5,-78 479.5,-84 479.5,-84 479.5,-96 479.5,-96 479.5,-102 473.5,-108 467.5,-108"/>
<text text-anchor="middle" x="435.5" y="-93.4" font-family="Arial" font-size="12.00">Avoid Getting</text>
<text text-anchor="middle" x="435.5" y="-80.4" font-family="Arial" font-size="12.00">Broken Code</text>
</g>
</g>
</svg>
