<?xml version="1.0" encoding="UTF-8" standalone="no"?>
<!DOCTYPE svg PUBLIC "-//W3C//DTD SVG 1.1//EN"
 "http://www.w3.org/Graphics/SVG/1.1/DTD/svg11.dtd">
<!-- Generated by graphviz version 2.43.0 (0)
 -->
<!-- Title: ContinuousIntegrationComponents Pages: 1 -->
<svg width="984pt" height="285pt"
 viewBox="0.00 0.00 983.99 285.00" xmlns="http://www.w3.org/2000/svg" xmlns:xlink="http://www.w3.org/1999/xlink">
<g id="graph0" class="graph" transform="scale(1 1) rotate(0) translate(4 281)">
<title>ContinuousIntegrationComponents</title>
<polygon fill="white" stroke="transparent" points="-4,4 -4,-281 979.99,-281 979.99,4 -4,4"/>
<text text-anchor="middle" x="487.99" y="-261.8" font-family="Times,serif" font-size="14.00">Components of Continuous Integration (CI)</text>
<!-- VersionControlRepository -->
<g id="node1" class="node">
<title>VersionControlRepository</title>
<polygon fill="none" stroke="black" points="513.5,-254 510.5,-258 489.5,-258 486.5,-254 192.5,-254 192.5,-216 513.5,-216 513.5,-254"/>
<text text-anchor="middle" x="353" y="-238.8" font-family="Times,serif" font-size="14.00">Version Control Repository</text>
<text text-anchor="middle" x="353" y="-223.8" font-family="Times,serif" font-size="14.00">(Provides source code and tracks changes)</text>
</g>
<!-- CIServer -->
<g id="node4" class="node">
<title>CIServer</title>
<path fill="none" stroke="orange" d="M506.5,-165C506.5,-165 199.5,-165 199.5,-165 193.5,-165 187.5,-159 187.5,-153 187.5,-153 187.5,-139 187.5,-139 187.5,-133 193.5,-127 199.5,-127 199.5,-127 506.5,-127 506.5,-127 512.5,-127 518.5,-133 518.5,-139 518.5,-139 518.5,-153 518.5,-153 518.5,-159 512.5,-165 506.5,-165"/>
<text text-anchor="middle" x="353" y="-149.8" font-family="Times,serif" font-size="14.00">CI Server</text>
<text text-anchor="middle" x="353" y="-134.8" font-family="Times,serif" font-size="14.00">(Central process coordinating CI workflows)</text>
</g>
<!-- VersionControlRepository&#45;&gt;CIServer -->
<g id="edge1" class="edge">
<title>VersionControlRepository&#45;&gt;CIServer</title>
<path fill="none" stroke="black" d="M353,-215.97C353,-204.19 353,-188.56 353,-175.16"/>
<polygon fill="black" stroke="black" points="356.5,-175 353,-165 349.5,-175 356.5,-175"/>
<text text-anchor="middle" x="429" y="-186.8" font-family="Times,serif" font-size="14.00">Provides source code</text>
</g>
<!-- BuildScript -->
<g id="node2" class="node">
<title>BuildScript</title>
<polygon fill="lightyellow" stroke="black" points="332,-57 0,-57 0,-19 338,-19 338,-51 332,-57"/>
<polyline fill="none" stroke="black" points="332,-57 332,-51 "/>
<polyline fill="none" stroke="black" points="338,-51 332,-51 "/>
<text text-anchor="middle" x="169" y="-41.8" font-family="Times,serif" font-size="14.00">Build Script</text>
<text text-anchor="middle" x="169" y="-26.8" font-family="Times,serif" font-size="14.00">(Automates building, testing, and packaging)</text>
</g>
<!-- BuildScript&#45;&gt;CIServer -->
<g id="edge3" class="edge">
<title>BuildScript&#45;&gt;CIServer</title>
<path fill="none" stroke="black" d="M264.87,-57.06C288.64,-65.2 312.56,-76.98 331,-94 337.72,-100.21 342.48,-108.82 345.81,-117.2"/>
<polygon fill="black" stroke="black" points="342.54,-118.45 349.1,-126.77 349.16,-116.18 342.54,-118.45"/>
<text text-anchor="middle" x="410.5" y="-97.8" font-family="Times,serif" font-size="14.00">Sends build results</text>
</g>
<!-- FeedbackMechanism -->
<g id="node3" class="node">
<title>FeedbackMechanism</title>
<polygon fill="lightblue" stroke="black" points="975.98,-76 482.87,-76 356.02,0 849.13,0 975.98,-76"/>
<text text-anchor="middle" x="666" y="-41.8" font-family="Times,serif" font-size="14.00">Feedback Mechanism</text>
<text text-anchor="middle" x="666" y="-26.8" font-family="Times,serif" font-size="14.00">(Sends build/test results to developers)</text>
</g>
<!-- CIServer&#45;&gt;BuildScript -->
<g id="edge2" class="edge">
<title>CIServer&#45;&gt;BuildScript</title>
<path fill="none" stroke="black" d="M205.55,-126.88C189.14,-122.2 176.12,-116.33 170,-109 160.57,-97.7 159.84,-81.42 161.69,-67.4"/>
<polygon fill="black" stroke="black" points="165.19,-67.71 163.5,-57.25 158.3,-66.48 165.19,-67.71"/>
<text text-anchor="middle" x="250.5" y="-97.8" font-family="Times,serif" font-size="14.00">Triggers build process</text>
</g>
<!-- CIServer&#45;&gt;FeedbackMechanism -->
<g id="edge4" class="edge">
<title>CIServer&#45;&gt;FeedbackMechanism</title>
<path fill="none" stroke="black" d="M423.75,-126.93C443.38,-121.55 464.62,-115.37 484,-109 510.64,-100.24 539.09,-89.82 565.39,-79.73"/>
<polygon fill="black" stroke="black" points="566.91,-82.9 574.98,-76.04 564.39,-76.37 566.91,-82.9"/>
<text text-anchor="middle" x="592" y="-97.8" font-family="Times,serif" font-size="14.00">Sends notifications</text>
</g>
</g>
</svg>
