<?xml version="1.0" encoding="UTF-8" standalone="no"?>
<!DOCTYPE svg PUBLIC "-//W3C//DTD SVG 1.1//EN"
 "http://www.w3.org/Graphics/SVG/1.1/DTD/svg11.dtd">
<!-- Generated by graphviz version 2.43.0 (0)
 -->
<!-- Title: DayInTheLifeCI Pages: 1 -->
<svg width="1022pt" height="130pt"
 viewBox="0.00 0.00 1022.00 130.00" xmlns="http://www.w3.org/2000/svg" xmlns:xlink="http://www.w3.org/1999/xlink">
<g id="graph0" class="graph" transform="scale(1 1) rotate(0) translate(4 126)">
<title>DayInTheLifeCI</title>
<polygon fill="white" stroke="transparent" points="-4,4 -4,-126 1018,-126 1018,4 -4,4"/>
<text text-anchor="middle" x="507" y="-106.8" font-family="Times,serif" font-size="14.00">A Day in the Life of Continuous Integration</text>
<!-- Tim -->
<g id="node1" class="node">
<title>Tim</title>
<polygon fill="none" stroke="black" points="104,-98 0,-98 0,-62 110,-62 110,-92 104,-98"/>
<polyline fill="none" stroke="black" points="104,-98 104,-92 "/>
<polyline fill="none" stroke="black" points="110,-92 104,-92 "/>
<text text-anchor="middle" x="55" y="-83.4" font-family="Arial" font-size="12.00">Tim</text>
<text text-anchor="middle" x="55" y="-70.4" font-family="Arial" font-size="12.00">Run Private Build</text>
</g>
<!-- GitRepo -->
<g id="node3" class="node">
<title>GitRepo</title>
<path fill="none" stroke="black" d="M429,-64.02C429,-66.36 393.14,-68.25 349,-68.25 304.86,-68.25 269,-66.36 269,-64.02 269,-64.02 269,-25.98 269,-25.98 269,-23.64 304.86,-21.75 349,-21.75 393.14,-21.75 429,-23.64 429,-25.98 429,-25.98 429,-64.02 429,-64.02"/>
<path fill="none" stroke="black" d="M429,-64.02C429,-61.69 393.14,-59.8 349,-59.8 304.86,-59.8 269,-61.69 269,-64.02"/>
<text text-anchor="middle" x="349" y="-48.4" font-family="Arial" font-size="12.00">Git</text>
<text text-anchor="middle" x="349" y="-35.4" font-family="Arial" font-size="12.00">Version Control Repository</text>
</g>
<!-- Tim&#45;&gt;GitRepo -->
<g id="edge1" class="edge">
<title>Tim&#45;&gt;GitRepo</title>
<path fill="none" stroke="black" d="M110.24,-73.5C151.89,-68.51 210.3,-61.51 258.8,-55.69"/>
<polygon fill="black" stroke="black" points="259.47,-59.14 268.99,-54.47 258.64,-52.19 259.47,-59.14"/>
<text text-anchor="middle" x="189.5" y="-73.8" font-family="Times,serif" font-size="14.00">Commit Changes</text>
</g>
<!-- Lisa -->
<g id="node2" class="node">
<title>Lisa</title>
<polygon fill="none" stroke="black" points="104,-36 0,-36 0,0 110,0 110,-30 104,-36"/>
<polyline fill="none" stroke="black" points="104,-36 104,-30 "/>
<polyline fill="none" stroke="black" points="110,-30 104,-30 "/>
<text text-anchor="middle" x="55" y="-21.4" font-family="Arial" font-size="12.00">Lisa</text>
<text text-anchor="middle" x="55" y="-8.4" font-family="Arial" font-size="12.00">Run Private Build</text>
</g>
<!-- Lisa&#45;&gt;GitRepo -->
<g id="edge2" class="edge">
<title>Lisa&#45;&gt;GitRepo</title>
<path fill="none" stroke="black" d="M110.31,-20.5C149.48,-22.58 203.59,-26.01 251,-31 253.55,-31.27 256.14,-31.56 258.76,-31.86"/>
<polygon fill="black" stroke="black" points="258.58,-35.36 268.92,-33.08 259.41,-28.41 258.58,-35.36"/>
<text text-anchor="middle" x="189.5" y="-34.8" font-family="Times,serif" font-size="14.00">Commit Changes</text>
</g>
<!-- Jenkins -->
<g id="node4" class="node">
<title>Jenkins</title>
<polygon fill="none" stroke="black" points="748,-63 745,-67 724,-67 721,-63 596,-63 596,-27 748,-27 748,-63"/>
<text text-anchor="middle" x="672" y="-48.4" font-family="Arial" font-size="12.00">Jenkins</text>
<text text-anchor="middle" x="672" y="-35.4" font-family="Arial" font-size="12.00">Integration Build Machine</text>
</g>
<!-- GitRepo&#45;&gt;Jenkins -->
<g id="edge3" class="edge">
<title>GitRepo&#45;&gt;Jenkins</title>
<path fill="none" stroke="black" d="M429.24,-29.07C435.23,-28.24 441.2,-27.53 447,-27 504.98,-21.67 520.04,-21.44 578,-27 580.54,-27.24 583.12,-27.52 585.72,-27.84"/>
<polygon fill="black" stroke="black" points="585.43,-31.33 595.8,-29.18 586.35,-24.39 585.43,-31.33"/>
<text text-anchor="middle" x="512.5" y="-30.8" font-family="Times,serif" font-size="14.00">Changes Detected</text>
</g>
<!-- Jenkins&#45;&gt;GitRepo -->
<g id="edge7" class="edge">
<title>Jenkins&#45;&gt;GitRepo</title>
<path fill="none" stroke="black" stroke-dasharray="5,2" d="M595.87,-45C549.07,-45 488.61,-45 439.36,-45"/>
<polygon fill="black" stroke="black" points="439.35,-41.5 429.35,-45 439.35,-48.5 439.35,-41.5"/>
<text text-anchor="middle" x="512.5" y="-48.8" font-family="Times,serif" font-size="14.00">Build Logs</text>
</g>
<!-- Feedback -->
<g id="node5" class="node">
<title>Feedback</title>
<path fill="none" stroke="black" d="M1002,-63C1002,-63 892,-63 892,-63 886,-63 880,-57 880,-51 880,-51 880,-39 880,-39 880,-33 886,-27 892,-27 892,-27 1002,-27 1002,-27 1008,-27 1014,-33 1014,-39 1014,-39 1014,-51 1014,-51 1014,-57 1008,-63 1002,-63"/>
<text text-anchor="middle" x="947" y="-41.9" font-family="Arial" font-size="12.00">Feedback Mechanism</text>
</g>
<!-- Jenkins&#45;&gt;Feedback -->
<g id="edge4" class="edge">
<title>Jenkins&#45;&gt;Feedback</title>
<path fill="none" stroke="black" d="M748.32,-45C785.97,-45 831.46,-45 869.3,-45"/>
<polygon fill="black" stroke="black" points="869.76,-48.5 879.76,-45 869.76,-41.5 869.76,-48.5"/>
<text text-anchor="middle" x="814" y="-48.8" font-family="Times,serif" font-size="14.00">Build Results</text>
</g>
<!-- Feedback&#45;&gt;Tim -->
<g id="edge5" class="edge">
<title>Feedback&#45;&gt;Tim</title>
<path fill="none" stroke="black" d="M879.69,-60.98C873.73,-62.12 867.77,-63.15 862,-64 811.75,-71.4 798.72,-69.4 748,-72 527.29,-83.29 471.97,-84.44 251,-88 196.34,-88.88 182.58,-91.02 128,-88 125.47,-87.86 122.9,-87.69 120.3,-87.5"/>
<polygon fill="black" stroke="black" points="120.45,-84 110.2,-86.67 119.88,-90.98 120.45,-84"/>
<text text-anchor="middle" x="512.5" y="-87.8" font-family="Times,serif" font-size="14.00">Review</text>
</g>
<!-- Feedback&#45;&gt;Lisa -->
<g id="edge6" class="edge">
<title>Feedback&#45;&gt;Lisa</title>
<path fill="none" stroke="black" d="M879.65,-35.15C841.24,-29.65 791.96,-22.93 748,-18 672.62,-9.54 653.78,-6.34 578,-3 413.1,4.26 218.74,-6.39 120.22,-13.15"/>
<polygon fill="black" stroke="black" points="119.86,-9.67 110.13,-13.85 120.34,-16.65 119.86,-9.67"/>
<text text-anchor="middle" x="512.5" y="-6.8" font-family="Times,serif" font-size="14.00">Review</text>
</g>
</g>
</svg>
