<?xml version="1.0" encoding="UTF-8" standalone="no"?>
<!DOCTYPE svg PUBLIC "-//W3C//DTD SVG 1.1//EN"
 "http://www.w3.org/Graphics/SVG/1.1/DTD/svg11.dtd">
<!-- Generated by graphviz version 2.43.0 (0)
 -->
<!-- Title: GettingToCI Pages: 1 -->
<svg width="268pt" height="229pt"
 viewBox="0.00 0.00 268.00 229.00" xmlns="http://www.w3.org/2000/svg" xmlns:xlink="http://www.w3.org/1999/xlink">
<g id="graph0" class="graph" transform="scale(1 1) rotate(0) translate(4 225)">
<title>GettingToCI</title>
<polygon fill="white" stroke="transparent" points="-4,4 -4,-225 264,-225 264,4 -4,4"/>
<text text-anchor="middle" x="130" y="-205.8" font-family="Times,serif" font-size="14.00">Getting to Continuous Integration</text>
<!-- Identify -->
<g id="node1" class="node">
<title>Identify</title>
<path fill="none" stroke="black" d="M190,-198C190,-198 70,-198 70,-198 64,-198 58,-192 58,-186 58,-186 58,-174 58,-174 58,-168 64,-162 70,-162 70,-162 190,-162 190,-162 196,-162 202,-168 202,-174 202,-174 202,-186 202,-186 202,-192 196,-198 190,-198"/>
<text text-anchor="middle" x="130" y="-176.9" font-family="Arial" font-size="12.00">Identify</text>
</g>
<!-- Build -->
<g id="node2" class="node">
<title>Build</title>
<path fill="none" stroke="black" d="M190,-144C190,-144 70,-144 70,-144 64,-144 58,-138 58,-132 58,-132 58,-120 58,-120 58,-114 64,-108 70,-108 70,-108 190,-108 190,-108 196,-108 202,-114 202,-120 202,-120 202,-132 202,-132 202,-138 196,-144 190,-144"/>
<text text-anchor="middle" x="130" y="-122.9" font-family="Arial" font-size="12.00">Build</text>
</g>
<!-- Identify&#45;&gt;Build -->
<!-- Share -->
<g id="node3" class="node">
<title>Share</title>
<path fill="none" stroke="black" d="M190,-90C190,-90 70,-90 70,-90 64,-90 58,-84 58,-78 58,-78 58,-66 58,-66 58,-60 64,-54 70,-54 70,-54 190,-54 190,-54 196,-54 202,-60 202,-66 202,-66 202,-78 202,-78 202,-84 196,-90 190,-90"/>
<text text-anchor="middle" x="130" y="-68.9" font-family="Arial" font-size="12.00">Share</text>
</g>
<!-- Build&#45;&gt;Share -->
<!-- Continuous -->
<g id="node4" class="node">
<title>Continuous</title>
<path fill="none" stroke="black" d="M190,-36C190,-36 70,-36 70,-36 64,-36 58,-30 58,-24 58,-24 58,-12 58,-12 58,-6 64,0 70,0 70,0 190,0 190,0 196,0 202,-6 202,-12 202,-12 202,-24 202,-24 202,-30 196,-36 190,-36"/>
<text text-anchor="middle" x="130" y="-14.9" font-family="Arial" font-size="12.00">Continuous</text>
</g>
<!-- Share&#45;&gt;Continuous -->
</g>
</svg>
