<?xml version="1.0" encoding="UTF-8" standalone="no"?>
<!DOCTYPE svg PUBLIC "-//W3C//DTD SVG 1.1//EN"
 "http://www.w3.org/Graphics/SVG/1.1/DTD/svg11.dtd">
<!-- Generated by graphviz version 2.43.0 (0)
 -->
<!-- Title: CI_Feedback_Mechanisms Pages: 1 -->
<svg width="1041pt" height="340pt"
 viewBox="0.00 0.00 1041.22 340.00" xmlns="http://www.w3.org/2000/svg" xmlns:xlink="http://www.w3.org/1999/xlink">
<g id="graph0" class="graph" transform="scale(1 1) rotate(0) translate(4 336)">
<title>CI_Feedback_Mechanisms</title>
<polygon fill="white" stroke="transparent" points="-4,4 -4,-336 1037.22,-336 1037.22,4 -4,4"/>
<text text-anchor="middle" x="516.61" y="-315.2" font-family="Times,serif" font-size="16.00">Continuous Feedback Mechanisms in CI Systems</text>
<!-- Developer -->
<g id="node1" class="node">
<title>Developer</title>
<ellipse fill="lightgrey" stroke="lightgrey" cx="44.32" cy="-153" rx="44.15" ry="18"/>
<text text-anchor="middle" x="44.32" y="-149.9" font-family="Arial" font-size="12.00">Developer</text>
</g>
<!-- Version Control Repository -->
<g id="node2" class="node">
<title>Version Control Repository</title>
<path fill="lightyellow" stroke="lightyellow" d="M407.64,-167.73C407.64,-169.53 371.79,-171 327.64,-171 283.5,-171 247.64,-169.53 247.64,-167.73 247.64,-167.73 247.64,-138.27 247.64,-138.27 247.64,-136.47 283.5,-135 327.64,-135 371.79,-135 407.64,-136.47 407.64,-138.27 407.64,-138.27 407.64,-167.73 407.64,-167.73"/>
<path fill="none" stroke="lightyellow" d="M407.64,-167.73C407.64,-165.92 371.79,-164.45 327.64,-164.45 283.5,-164.45 247.64,-165.92 247.64,-167.73"/>
<text text-anchor="middle" x="327.64" y="-149.9" font-family="Arial" font-size="12.00">Version Control Repository</text>
</g>
<!-- Developer&#45;&gt;Version Control Repository -->
<g id="edge1" class="edge">
<title>Developer&#45;&gt;Version Control Repository</title>
<path fill="none" stroke="black" d="M88.66,-153C128.17,-153 187.77,-153 237.44,-153"/>
<polygon fill="black" stroke="black" points="237.56,-156.5 247.56,-153 237.56,-149.5 237.56,-156.5"/>
<text text-anchor="middle" x="168.14" y="-156.8" font-family="Times,serif" font-size="14.00">Commit Changes</text>
</g>
<!-- CI Server\nIntegration Build Machine -->
<g id="node3" class="node">
<title>CI Server\nIntegration Build Machine</title>
<polygon fill="lightgreen" stroke="lightgreen" points="622.64,-171 474.64,-171 470.64,-167 470.64,-135 618.64,-135 622.64,-139 622.64,-171"/>
<polyline fill="none" stroke="lightgreen" points="618.64,-167 470.64,-167 "/>
<polyline fill="none" stroke="lightgreen" points="618.64,-167 618.64,-135 "/>
<polyline fill="none" stroke="lightgreen" points="618.64,-167 622.64,-171 "/>
<text text-anchor="middle" x="546.64" y="-156.4" font-family="Arial" font-size="12.00">CI Server</text>
<text text-anchor="middle" x="546.64" y="-143.4" font-family="Arial" font-size="12.00">Integration Build Machine</text>
</g>
<!-- Version Control Repository&#45;&gt;CI Server\nIntegration Build Machine -->
<g id="edge2" class="edge">
<title>Version Control Repository&#45;&gt;CI Server\nIntegration Build Machine</title>
<path fill="none" stroke="black" d="M407.91,-153C425.01,-153 443.16,-153 460.48,-153"/>
<polygon fill="black" stroke="black" points="460.57,-156.5 470.57,-153 460.57,-149.5 460.57,-156.5"/>
<text text-anchor="middle" x="439.14" y="-156.8" font-family="Times,serif" font-size="14.00">Poll</text>
</g>
<!-- Build Script -->
<g id="node4" class="node">
<title>Build Script</title>
<polygon fill="lightcyan" stroke="lightcyan" points="797.64,-171 725.64,-171 725.64,-135 803.64,-135 803.64,-165 797.64,-171"/>
<polyline fill="none" stroke="lightcyan" points="797.64,-171 797.64,-165 "/>
<polyline fill="none" stroke="lightcyan" points="803.64,-165 797.64,-165 "/>
<text text-anchor="middle" x="764.64" y="-149.9" font-family="Arial" font-size="12.00">Build Script</text>
</g>
<!-- CI Server\nIntegration Build Machine&#45;&gt;Build Script -->
<g id="edge3" class="edge">
<title>CI Server\nIntegration Build Machine&#45;&gt;Build Script</title>
<path fill="none" stroke="black" d="M622.89,-153C653.66,-153 688.34,-153 715.58,-153"/>
<polygon fill="black" stroke="black" points="715.64,-156.5 725.64,-153 715.64,-149.5 715.64,-156.5"/>
<text text-anchor="middle" x="674.14" y="-156.8" font-family="Times,serif" font-size="14.00">Generate</text>
</g>
<!-- Text Message -->
<g id="node5" class="node">
<title>Text Message</title>
<ellipse fill="lightpink" stroke="lightpink" cx="970.43" cy="-288" rx="55.31" ry="18"/>
<text text-anchor="middle" x="970.43" y="-284.9" font-family="Arial" font-size="12.00">Text Message</text>
</g>
<!-- Build Script&#45;&gt;Text Message -->
<g id="edge8" class="edge">
<title>Build Script&#45;&gt;Text Message</title>
<path fill="none" stroke="black" d="M774.64,-171.13C784.15,-188.63 800.67,-214.79 821.64,-231 848.91,-252.08 884.9,-266.18 914.54,-275.09"/>
<polygon fill="black" stroke="black" points="913.75,-278.5 924.33,-277.91 915.69,-271.77 913.75,-278.5"/>
<text text-anchor="middle" x="855.64" y="-268.8" font-family="Times,serif" font-size="14.00">Feedback</text>
</g>
<!-- Browser Plug&#45;in -->
<g id="node6" class="node">
<title>Browser Plug&#45;in</title>
<ellipse fill="lightpink" stroke="lightpink" cx="970.43" cy="-234" rx="62.58" ry="18"/>
<text text-anchor="middle" x="970.43" y="-230.9" font-family="Arial" font-size="12.00">Browser Plug&#45;in</text>
</g>
<!-- Build Script&#45;&gt;Browser Plug&#45;in -->
<g id="edge9" class="edge">
<title>Build Script&#45;&gt;Browser Plug&#45;in</title>
<path fill="none" stroke="black" d="M792.56,-171.12C801.56,-176.69 811.81,-182.53 821.64,-187 850.91,-200.31 885.04,-211.43 913.11,-219.51"/>
<polygon fill="black" stroke="black" points="912.2,-222.88 922.78,-222.23 914.1,-216.15 912.2,-222.88"/>
<text text-anchor="middle" x="855.64" y="-215.8" font-family="Times,serif" font-size="14.00">Feedback</text>
</g>
<!-- Monitor -->
<g id="node7" class="node">
<title>Monitor</title>
<ellipse fill="lightpink" stroke="lightpink" cx="970.43" cy="-180" rx="34.45" ry="18"/>
<text text-anchor="middle" x="970.43" y="-176.9" font-family="Arial" font-size="12.00">Monitor</text>
</g>
<!-- Build Script&#45;&gt;Monitor -->
<g id="edge4" class="edge">
<title>Build Script&#45;&gt;Monitor</title>
<path fill="none" stroke="black" d="M803.98,-158.08C838.82,-162.69 890.16,-169.5 926.4,-174.3"/>
<polygon fill="black" stroke="black" points="926.28,-177.81 936.66,-175.66 927.2,-170.87 926.28,-177.81"/>
<text text-anchor="middle" x="855.64" y="-171.8" font-family="Times,serif" font-size="14.00">Feedback</text>
</g>
<!-- Orb -->
<g id="node8" class="node">
<title>Orb</title>
<ellipse fill="lightpink" stroke="lightpink" cx="970.43" cy="-126" rx="27" ry="18"/>
<text text-anchor="middle" x="970.43" y="-122.9" font-family="Arial" font-size="12.00">Orb</text>
</g>
<!-- Build Script&#45;&gt;Orb -->
<g id="edge5" class="edge">
<title>Build Script&#45;&gt;Orb</title>
<path fill="none" stroke="black" d="M803.8,-144.24C809.75,-143.04 815.85,-141.91 821.64,-141 859.59,-135.03 903.41,-130.93 933.42,-128.54"/>
<polygon fill="black" stroke="black" points="933.73,-132.03 943.43,-127.77 933.19,-125.05 933.73,-132.03"/>
<text text-anchor="middle" x="855.64" y="-144.8" font-family="Times,serif" font-size="14.00">Feedback</text>
</g>
<!-- Sounds -->
<g id="node9" class="node">
<title>Sounds</title>
<ellipse fill="lightpink" stroke="lightpink" cx="970.43" cy="-72" rx="35.91" ry="18"/>
<text text-anchor="middle" x="970.43" y="-68.9" font-family="Arial" font-size="12.00">Sounds</text>
</g>
<!-- Build Script&#45;&gt;Sounds -->
<g id="edge6" class="edge">
<title>Build Script&#45;&gt;Sounds</title>
<path fill="none" stroke="black" d="M787.14,-134.95C797.12,-127.29 809.46,-118.82 821.64,-113 855.32,-96.92 896.42,-86.16 926.72,-79.71"/>
<polygon fill="black" stroke="black" points="927.47,-83.13 936.56,-77.69 926.06,-76.27 927.47,-83.13"/>
<text text-anchor="middle" x="855.64" y="-116.8" font-family="Times,serif" font-size="14.00">Feedback</text>
</g>
<!-- E&#45;mail -->
<g id="node10" class="node">
<title>E&#45;mail</title>
<ellipse fill="lightpink" stroke="lightpink" cx="970.43" cy="-18" rx="31.29" ry="18"/>
<text text-anchor="middle" x="970.43" y="-14.9" font-family="Arial" font-size="12.00">E&#45;mail</text>
</g>
<!-- Build Script&#45;&gt;E&#45;mail -->
<g id="edge7" class="edge">
<title>Build Script&#45;&gt;E&#45;mail</title>
<path fill="none" stroke="black" d="M773.49,-134.71C782.51,-115.74 799.03,-86.46 821.64,-69 853.53,-44.38 898.13,-31.16 929.98,-24.4"/>
<polygon fill="black" stroke="black" points="930.72,-27.82 939.83,-22.43 929.34,-20.96 930.72,-27.82"/>
<text text-anchor="middle" x="855.64" y="-72.8" font-family="Times,serif" font-size="14.00">Feedback</text>
</g>
</g>
</svg>
