<?xml version="1.0" encoding="UTF-8" standalone="no"?>
<!DOCTYPE svg PUBLIC "-//W3C//DTD SVG 1.1//EN"
 "http://www.w3.org/Graphics/SVG/1.1/DTD/svg11.dtd">
<!-- Generated by graphviz version 2.43.0 (0)
 -->
<!-- Title: BuildProcess Pages: 1 -->
<svg width="294pt" height="499pt"
 viewBox="0.00 0.00 294.00 499.00" xmlns="http://www.w3.org/2000/svg" xmlns:xlink="http://www.w3.org/1999/xlink">
<g id="graph0" class="graph" transform="scale(1 1) rotate(0) translate(4 495)">
<title>BuildProcess</title>
<polygon fill="white" stroke="transparent" points="-4,4 -4,-495 290,-495 290,4 -4,4"/>
<text text-anchor="middle" x="143" y="-475.8" font-family="Times,serif" font-size="14.00">The logical processes of a build script</text>
<!-- BuildScript -->
<g id="node1" class="node">
<title>BuildScript</title>
<polygon fill="white" stroke="white" points="173,-468 107,-468 107,-432 179,-432 179,-462 173,-468"/>
<polyline fill="none" stroke="white" points="173,-468 173,-462 "/>
<polyline fill="none" stroke="white" points="179,-462 173,-462 "/>
<text text-anchor="middle" x="143" y="-447.5" font-family="Helvetica,sans-Serif" font-size="10.00">Build Script</text>
</g>
<!-- Clean -->
<g id="node2" class="node">
<title>Clean</title>
<polygon fill="lightgrey" stroke="lightgrey" points="170,-396 116,-396 116,-360 170,-360 170,-396"/>
<text text-anchor="middle" x="143" y="-375.5" font-family="Helvetica,sans-Serif" font-size="10.00">Clean</text>
</g>
<!-- BuildScript&#45;&gt;Clean -->
<g id="edge1" class="edge">
<title>BuildScript&#45;&gt;Clean</title>
<path fill="none" stroke="black" d="M143,-431.7C143,-423.98 143,-414.71 143,-406.11"/>
<polygon fill="black" stroke="black" points="146.5,-406.1 143,-396.1 139.5,-406.1 146.5,-406.1"/>
</g>
<!-- CompileSource -->
<g id="node3" class="node">
<title>CompileSource</title>
<polygon fill="lightgrey" stroke="lightgrey" points="203.5,-324 82.5,-324 82.5,-288 203.5,-288 203.5,-324"/>
<text text-anchor="middle" x="143" y="-303.5" font-family="Helvetica,sans-Serif" font-size="10.00">Compile Source Code</text>
</g>
<!-- Clean&#45;&gt;CompileSource -->
<g id="edge2" class="edge">
<title>Clean&#45;&gt;CompileSource</title>
<path fill="none" stroke="black" d="M143,-359.7C143,-351.98 143,-342.71 143,-334.11"/>
<polygon fill="black" stroke="black" points="146.5,-334.1 143,-324.1 139.5,-334.1 146.5,-334.1"/>
</g>
<!-- IntegrateDB -->
<g id="node4" class="node">
<title>IntegrateDB</title>
<polygon fill="lightgrey" stroke="lightgrey" points="198,-252 88,-252 88,-216 198,-216 198,-252"/>
<text text-anchor="middle" x="143" y="-231.5" font-family="Helvetica,sans-Serif" font-size="10.00">Integrate Database</text>
</g>
<!-- CompileSource&#45;&gt;IntegrateDB -->
<g id="edge3" class="edge">
<title>CompileSource&#45;&gt;IntegrateDB</title>
<path fill="none" stroke="black" d="M143,-287.7C143,-279.98 143,-270.71 143,-262.11"/>
<polygon fill="black" stroke="black" points="146.5,-262.1 143,-252.1 139.5,-262.1 146.5,-262.1"/>
</g>
<!-- RunTests -->
<g id="node5" class="node">
<title>RunTests</title>
<polygon fill="lightgrey" stroke="lightgrey" points="174.5,-180 111.5,-180 111.5,-144 174.5,-144 174.5,-180"/>
<text text-anchor="middle" x="143" y="-159.5" font-family="Helvetica,sans-Serif" font-size="10.00">Run Tests</text>
</g>
<!-- IntegrateDB&#45;&gt;RunTests -->
<g id="edge4" class="edge">
<title>IntegrateDB&#45;&gt;RunTests</title>
<path fill="none" stroke="black" d="M143,-215.7C143,-207.98 143,-198.71 143,-190.11"/>
<polygon fill="black" stroke="black" points="146.5,-190.1 143,-180.1 139.5,-190.1 146.5,-190.1"/>
</g>
<!-- RunInspections -->
<g id="node6" class="node">
<title>RunInspections</title>
<polygon fill="lightgrey" stroke="lightgrey" points="190,-108 96,-108 96,-72 190,-72 190,-108"/>
<text text-anchor="middle" x="143" y="-87.5" font-family="Helvetica,sans-Serif" font-size="10.00">Run Inspections</text>
</g>
<!-- RunTests&#45;&gt;RunInspections -->
<g id="edge5" class="edge">
<title>RunTests&#45;&gt;RunInspections</title>
<path fill="none" stroke="black" d="M143,-143.7C143,-135.98 143,-126.71 143,-118.11"/>
<polygon fill="black" stroke="black" points="146.5,-118.1 143,-108.1 139.5,-118.1 146.5,-118.1"/>
</g>
<!-- DeploySoftware -->
<g id="node7" class="node">
<title>DeploySoftware</title>
<polygon fill="lightgrey" stroke="lightgrey" points="191.5,-36 94.5,-36 94.5,0 191.5,0 191.5,-36"/>
<text text-anchor="middle" x="143" y="-15.5" font-family="Helvetica,sans-Serif" font-size="10.00">Deploy Software</text>
</g>
<!-- RunInspections&#45;&gt;DeploySoftware -->
<g id="edge6" class="edge">
<title>RunInspections&#45;&gt;DeploySoftware</title>
<path fill="none" stroke="black" d="M143,-71.7C143,-63.98 143,-54.71 143,-46.11"/>
<polygon fill="black" stroke="black" points="146.5,-46.1 143,-36.1 139.5,-46.1 146.5,-46.1"/>
</g>
</g>
</svg>
