<?xml version="1.0" encoding="UTF-8" standalone="no"?>
<!DOCTYPE svg PUBLIC "-//W3C//DTD SVG 1.1//EN"
 "http://www.w3.org/Graphics/SVG/1.1/DTD/svg11.dtd">
<!-- Generated by graphviz version 2.43.0 (0)
 -->
<!-- Title: BuildComponents Pages: 1 -->
<svg width="377pt" height="443pt"
 viewBox="0.00 0.00 377.00 443.00" xmlns="http://www.w3.org/2000/svg" xmlns:xlink="http://www.w3.org/1999/xlink">
<g id="graph0" class="graph" transform="scale(1 1) rotate(0) translate(4 439)">
<title>BuildComponents</title>
<polygon fill="white" stroke="transparent" points="-4,4 -4,-439 373,-439 373,4 -4,4"/>
<text text-anchor="middle" x="184.5" y="-419.8" font-family="Times,serif" font-size="14.00">Building System Components Separately</text>
<g id="clust1" class="cluster">
<title>cluster_Before</title>
<polygon fill="none" stroke="gray" points="8,-8 8,-83 78,-83 78,-8 8,-8"/>
<text text-anchor="middle" x="43" y="-67.8" font-family="Times,serif" font-size="14.00">Before</text>
</g>
<g id="clust2" class="cluster">
<title>cluster_After</title>
<polygon fill="none" stroke="gray" points="8,-91 8,-404 361,-404 361,-91 8,-91"/>
<text text-anchor="middle" x="184.5" y="-388.8" font-family="Times,serif" font-size="14.00">After</text>
</g>
<!-- Before -->
<g id="node1" class="node">
<title>Before</title>
<polygon fill="none" stroke="white" points="70,-52 16,-52 16,-16 70,-16 70,-52"/>
<text text-anchor="middle" x="43" y="-37" font-family="Helvetica,sans-Serif" font-size="10.00">FinanIT</text>
<text text-anchor="middle" x="43" y="-26" font-family="Helvetica,sans-Serif" font-size="10.00">Project</text>
</g>
<!-- After -->
<g id="node2" class="node">
<title>After</title>
<polygon fill="white" stroke="white" points="70,-268 16,-268 16,-232 70,-232 70,-268"/>
<text text-anchor="middle" x="43" y="-253" font-family="Helvetica,sans-Serif" font-size="10.00">FinanIT</text>
<text text-anchor="middle" x="43" y="-242" font-family="Helvetica,sans-Serif" font-size="10.00">Project</text>
</g>
<!-- UserSubsystem -->
<g id="node3" class="node">
<title>UserSubsystem</title>
<polygon fill="lightgrey" stroke="lightgrey" points="353,-174 282,-174 282,-138 353,-138 353,-174"/>
<text text-anchor="middle" x="317.5" y="-159" font-family="Helvetica,sans-Serif" font-size="10.00">User</text>
<text text-anchor="middle" x="317.5" y="-148" font-family="Helvetica,sans-Serif" font-size="10.00">Subsystem</text>
</g>
<!-- After&#45;&gt;UserSubsystem -->
<g id="edge1" class="edge">
<title>After&#45;&gt;UserSubsystem</title>
<path fill="none" stroke="black" d="M58.62,-231.9C70.1,-218.96 87.25,-202.26 106,-193 158.98,-166.84 227.49,-158.91 271.72,-156.65"/>
<polygon fill="black" stroke="black" points="272.03,-160.14 281.87,-156.21 271.72,-153.15 272.03,-160.14"/>
<text text-anchor="middle" x="176" y="-211.8" font-family="Times,serif" font-size="14.00">Build if any</text>
<text text-anchor="middle" x="176" y="-196.8" font-family="Times,serif" font-size="14.00">subsystem changes</text>
</g>
<!-- BudgetSubsystem -->
<g id="node4" class="node">
<title>BudgetSubsystem</title>
<polygon fill="lightgrey" stroke="lightgrey" points="353,-268 282,-268 282,-232 353,-232 353,-268"/>
<text text-anchor="middle" x="317.5" y="-253" font-family="Helvetica,sans-Serif" font-size="10.00">Budget</text>
<text text-anchor="middle" x="317.5" y="-242" font-family="Helvetica,sans-Serif" font-size="10.00">Subsystem</text>
</g>
<!-- After&#45;&gt;BudgetSubsystem -->
<g id="edge2" class="edge">
<title>After&#45;&gt;BudgetSubsystem</title>
<path fill="none" stroke="black" d="M70.15,-245.35C81.18,-243.61 94.18,-241.85 106,-241 168.06,-236.52 183.9,-237.05 246,-241 254.32,-241.53 263.15,-242.4 271.65,-243.41"/>
<polygon fill="black" stroke="black" points="271.44,-246.91 281.8,-244.68 272.31,-239.96 271.44,-246.91"/>
<text text-anchor="middle" x="176" y="-259.8" font-family="Times,serif" font-size="14.00">Build if any</text>
<text text-anchor="middle" x="176" y="-244.8" font-family="Times,serif" font-size="14.00">subsystem changes</text>
</g>
<!-- TimesheetSubsystem -->
<g id="node5" class="node">
<title>TimesheetSubsystem</title>
<polygon fill="lightgrey" stroke="lightgrey" points="353,-362 282,-362 282,-326 353,-326 353,-362"/>
<text text-anchor="middle" x="317.5" y="-347" font-family="Helvetica,sans-Serif" font-size="10.00">Timesheet</text>
<text text-anchor="middle" x="317.5" y="-336" font-family="Helvetica,sans-Serif" font-size="10.00">Subsystem</text>
</g>
<!-- After&#45;&gt;TimesheetSubsystem -->
<g id="edge3" class="edge">
<title>After&#45;&gt;TimesheetSubsystem</title>
<path fill="none" stroke="black" d="M70.09,-264.3C80.99,-269.95 93.92,-276.21 106,-281 161.98,-303.18 228.95,-321.96 272.08,-333.1"/>
<polygon fill="black" stroke="black" points="271.42,-336.54 281.98,-335.63 273.16,-329.76 271.42,-336.54"/>
<text text-anchor="middle" x="176" y="-343.8" font-family="Times,serif" font-size="14.00">Build if any</text>
<text text-anchor="middle" x="176" y="-328.8" font-family="Times,serif" font-size="14.00">subsystem changes</text>
</g>
</g>
</svg>
