<?xml version="1.0" encoding="UTF-8" standalone="no"?>
<!DOCTYPE svg PUBLIC "-//W3C//DTD SVG 1.1//EN"
 "http://www.w3.org/Graphics/SVG/1.1/DTD/svg11.dtd">
<!-- Generated by graphviz version 2.43.0 (0)
 -->
<!-- Title: BuildPractices Pages: 1 -->
<svg width="795pt" height="352pt"
 viewBox="0.00 0.00 794.50 352.00" xmlns="http://www.w3.org/2000/svg" xmlns:xlink="http://www.w3.org/1999/xlink">
<g id="graph0" class="graph" transform="scale(1 1) rotate(0) translate(4 348)">
<title>BuildPractices</title>
<polygon fill="white" stroke="transparent" points="-4,4 -4,-348 790.5,-348 790.5,4 -4,4"/>
<text text-anchor="middle" x="393.25" y="-327.2" font-family="Helvetica,sans-Serif" font-weight="bold" font-size="16.00">Build Practices Best Practices</text>
<!-- AutomateBuilds -->
<g id="node1" class="node">
<title>AutomateBuilds</title>
<path fill="none" stroke="black" d="M132,-318C132,-318 12,-318 12,-318 6,-318 0,-312 0,-306 0,-306 0,-272 0,-272 0,-266 6,-260 12,-260 12,-260 132,-260 132,-260 138,-260 144,-266 144,-272 144,-272 144,-306 144,-306 144,-312 138,-318 132,-318"/>
<text text-anchor="middle" x="72" y="-286.5" font-family="Helvetica,sans-Serif" font-size="10.00">Automate Builds</text>
</g>
<!-- ConsistentDirectory -->
<g id="node5" class="node">
<title>ConsistentDirectory</title>
<path fill="none" stroke="black" d="M132,-188C132,-188 12,-188 12,-188 6,-188 0,-182 0,-176 0,-176 0,-142 0,-142 0,-136 6,-130 12,-130 12,-130 132,-130 132,-130 138,-130 144,-136 144,-142 144,-142 144,-176 144,-176 144,-182 138,-188 132,-188"/>
<text text-anchor="middle" x="72" y="-162" font-family="Helvetica,sans-Serif" font-size="10.00">Create a Consistent</text>
<text text-anchor="middle" x="72" y="-151" font-family="Helvetica,sans-Serif" font-size="10.00">Directory Structure</text>
</g>
<!-- AutomateBuilds&#45;&gt;ConsistentDirectory -->
<!-- SingleCommandBuilds -->
<g id="node2" class="node">
<title>SingleCommandBuilds</title>
<path fill="none" stroke="black" d="M370.5,-318C370.5,-318 219.5,-318 219.5,-318 213.5,-318 207.5,-312 207.5,-306 207.5,-306 207.5,-272 207.5,-272 207.5,-266 213.5,-260 219.5,-260 219.5,-260 370.5,-260 370.5,-260 376.5,-260 382.5,-266 382.5,-272 382.5,-272 382.5,-306 382.5,-306 382.5,-312 376.5,-318 370.5,-318"/>
<text text-anchor="middle" x="295" y="-286.5" font-family="Helvetica,sans-Serif" font-size="10.00">Perform Single Command Builds</text>
</g>
<!-- FailBuildsFast -->
<g id="node6" class="node">
<title>FailBuildsFast</title>
<path fill="none" stroke="black" d="M355,-188C355,-188 235,-188 235,-188 229,-188 223,-182 223,-176 223,-176 223,-142 223,-142 223,-136 229,-130 235,-130 235,-130 355,-130 355,-130 361,-130 367,-136 367,-142 367,-142 367,-176 367,-176 367,-182 361,-188 355,-188"/>
<text text-anchor="middle" x="295" y="-156.5" font-family="Helvetica,sans-Serif" font-size="10.00">Fail Builds Fast</text>
</g>
<!-- SingleCommandBuilds&#45;&gt;FailBuildsFast -->
<!-- SeparateBuildScripts -->
<g id="node3" class="node">
<title>SeparateBuildScripts</title>
<path fill="none" stroke="black" d="M578,-318C578,-318 458,-318 458,-318 452,-318 446,-312 446,-306 446,-306 446,-272 446,-272 446,-266 452,-260 458,-260 458,-260 578,-260 578,-260 584,-260 590,-266 590,-272 590,-272 590,-306 590,-306 590,-312 584,-318 578,-318"/>
<text text-anchor="middle" x="518" y="-292" font-family="Helvetica,sans-Serif" font-size="10.00">Separate Build Scripts</text>
<text text-anchor="middle" x="518" y="-281" font-family="Helvetica,sans-Serif" font-size="10.00">from Your IDE</text>
</g>
<!-- BuildForAnyEnv -->
<g id="node7" class="node">
<title>BuildForAnyEnv</title>
<path fill="none" stroke="black" d="M578.5,-188C578.5,-188 457.5,-188 457.5,-188 451.5,-188 445.5,-182 445.5,-176 445.5,-176 445.5,-142 445.5,-142 445.5,-136 451.5,-130 457.5,-130 457.5,-130 578.5,-130 578.5,-130 584.5,-130 590.5,-136 590.5,-142 590.5,-142 590.5,-176 590.5,-176 590.5,-182 584.5,-188 578.5,-188"/>
<text text-anchor="middle" x="518" y="-156.5" font-family="Helvetica,sans-Serif" font-size="10.00">Build for Any Environment</text>
</g>
<!-- SeparateBuildScripts&#45;&gt;BuildForAnyEnv -->
<!-- CentralizeAssets -->
<g id="node4" class="node">
<title>CentralizeAssets</title>
<path fill="none" stroke="black" d="M771.5,-318C771.5,-318 648.5,-318 648.5,-318 642.5,-318 636.5,-312 636.5,-306 636.5,-306 636.5,-272 636.5,-272 636.5,-266 642.5,-260 648.5,-260 648.5,-260 771.5,-260 771.5,-260 777.5,-260 783.5,-266 783.5,-272 783.5,-272 783.5,-306 783.5,-306 783.5,-312 777.5,-318 771.5,-318"/>
<text text-anchor="middle" x="710" y="-286.5" font-family="Helvetica,sans-Serif" font-size="10.00">Centralize Software Assets</text>
</g>
<!-- DedicatedBuildMachine -->
<g id="node8" class="node">
<title>DedicatedBuildMachine</title>
<path fill="none" stroke="black" d="M774.5,-188C774.5,-188 645.5,-188 645.5,-188 639.5,-188 633.5,-182 633.5,-176 633.5,-176 633.5,-142 633.5,-142 633.5,-136 639.5,-130 645.5,-130 645.5,-130 774.5,-130 774.5,-130 780.5,-130 786.5,-136 786.5,-142 786.5,-142 786.5,-176 786.5,-176 786.5,-182 780.5,-188 774.5,-188"/>
<text text-anchor="middle" x="710" y="-162" font-family="Helvetica,sans-Serif" font-size="10.00">Use a Dedicated Integration</text>
<text text-anchor="middle" x="710" y="-151" font-family="Helvetica,sans-Serif" font-size="10.00">Build Machine</text>
</g>
<!-- CentralizeAssets&#45;&gt;DedicatedBuildMachine -->
<!-- OptionalCIServer -->
<g id="node9" class="node">
<title>OptionalCIServer</title>
<path fill="none" stroke="black" d="M132,-58C132,-58 12,-58 12,-58 6,-58 0,-52 0,-46 0,-46 0,-12 0,-12 0,-6 6,0 12,0 12,0 132,0 132,0 138,0 144,-6 144,-12 144,-12 144,-46 144,-46 144,-52 138,-58 132,-58"/>
<text text-anchor="middle" x="72" y="-26.5" font-family="Helvetica,sans-Serif" font-size="10.00">(Optional) Use a CI Server</text>
</g>
<!-- ConsistentDirectory&#45;&gt;OptionalCIServer -->
<!-- ManualIntegrationBuilds -->
<g id="node10" class="node">
<title>ManualIntegrationBuilds</title>
<path fill="none" stroke="black" d="M390.5,-58C390.5,-58 199.5,-58 199.5,-58 193.5,-58 187.5,-52 187.5,-46 187.5,-46 187.5,-12 187.5,-12 187.5,-6 193.5,0 199.5,0 199.5,0 390.5,0 390.5,0 396.5,0 402.5,-6 402.5,-12 402.5,-12 402.5,-46 402.5,-46 402.5,-52 396.5,-58 390.5,-58"/>
<text text-anchor="middle" x="295" y="-26.5" font-family="Helvetica,sans-Serif" font-size="10.00">(Optional) Run Manual Integration Builds</text>
</g>
<!-- FailBuildsFast&#45;&gt;ManualIntegrationBuilds -->
<!-- RunFastBuilds -->
<g id="node11" class="node">
<title>RunFastBuilds</title>
<path fill="none" stroke="black" d="M578,-58C578,-58 458,-58 458,-58 452,-58 446,-52 446,-46 446,-46 446,-12 446,-12 446,-6 452,0 458,0 458,0 578,0 578,0 584,0 590,-6 590,-12 590,-12 590,-46 590,-46 590,-52 584,-58 578,-58"/>
<text text-anchor="middle" x="518" y="-26.5" font-family="Helvetica,sans-Serif" font-size="10.00">Run Fast Builds</text>
</g>
<!-- BuildForAnyEnv&#45;&gt;RunFastBuilds -->
<!-- StageBuilds -->
<g id="node12" class="node">
<title>StageBuilds</title>
<path fill="none" stroke="black" d="M770,-58C770,-58 650,-58 650,-58 644,-58 638,-52 638,-46 638,-46 638,-12 638,-12 638,-6 644,0 650,0 650,0 770,0 770,0 776,0 782,-6 782,-12 782,-12 782,-46 782,-46 782,-52 776,-58 770,-58"/>
<text text-anchor="middle" x="710" y="-26.5" font-family="Helvetica,sans-Serif" font-size="10.00">Stage Builds</text>
</g>
<!-- DedicatedBuildMachine&#45;&gt;StageBuilds -->
</g>
</svg>
