<?xml version="1.0" encoding="UTF-8" standalone="no"?>
<!DOCTYPE svg PUBLIC "-//W3C//DTD SVG 1.1//EN"
 "http://www.w3.org/Graphics/SVG/1.1/DTD/svg11.dtd">
<!-- Generated by graphviz version 2.43.0 (0)
 -->
<!-- Title: ConfigurableBuilds Pages: 1 -->
<svg width="358pt" height="325pt"
 viewBox="0.00 0.00 358.00 325.00" xmlns="http://www.w3.org/2000/svg" xmlns:xlink="http://www.w3.org/1999/xlink">
<g id="graph0" class="graph" transform="scale(1 1) rotate(0) translate(4 321)">
<title>ConfigurableBuilds</title>
<polygon fill="white" stroke="transparent" points="-4,4 -4,-321 354,-321 354,4 -4,4"/>
<text text-anchor="middle" x="175" y="-301.8" font-family="Times,serif" font-size="14.00">Configurable builds for different environments</text>
<!-- BuildScript -->
<g id="node1" class="node">
<title>BuildScript</title>
<polygon fill="white" stroke="white" points="122.5,-165 56.5,-165 56.5,-129 128.5,-129 128.5,-159 122.5,-165"/>
<polyline fill="none" stroke="white" points="122.5,-165 122.5,-159 "/>
<polyline fill="none" stroke="white" points="128.5,-159 122.5,-159 "/>
<text text-anchor="middle" x="92.5" y="-144.5" font-family="Helvetica,sans-Serif" font-size="10.00">Build Script</text>
</g>
<!-- LocalProperties -->
<g id="node2" class="node">
<title>LocalProperties</title>
<polygon fill="lightgrey" stroke="lightgrey" points="278.5,-294 186.5,-294 186.5,-258 278.5,-258 278.5,-294"/>
<text text-anchor="middle" x="232.5" y="-273.5" font-family="Helvetica,sans-Serif" font-size="10.00">local.properties</text>
</g>
<!-- BuildScript&#45;&gt;LocalProperties -->
<g id="edge1" class="edge">
<title>BuildScript&#45;&gt;LocalProperties</title>
<path fill="none" stroke="black" stroke-dasharray="5,2" d="M108.02,-165.16C122.97,-183.31 147.42,-211.54 171.5,-233 178.88,-239.58 187.27,-246.1 195.38,-252"/>
<polygon fill="black" stroke="black" points="193.51,-254.96 203.68,-257.9 197.56,-249.26 193.51,-254.96"/>
</g>
<!-- IntegrationProperties -->
<g id="node3" class="node">
<title>IntegrationProperties</title>
<polygon fill="lightgrey" stroke="lightgrey" points="293.5,-208 171.5,-208 171.5,-172 293.5,-172 293.5,-208"/>
<text text-anchor="middle" x="232.5" y="-187.5" font-family="Helvetica,sans-Serif" font-size="10.00">integration.properties</text>
</g>
<!-- BuildScript&#45;&gt;IntegrationProperties -->
<g id="edge2" class="edge">
<title>BuildScript&#45;&gt;IntegrationProperties</title>
<path fill="none" stroke="black" stroke-dasharray="5,2" d="M128.68,-157.96C139.46,-161.32 151.69,-165.13 163.87,-168.93"/>
<polygon fill="black" stroke="black" points="163.01,-172.32 173.6,-171.96 165.09,-165.64 163.01,-172.32"/>
</g>
<!-- QAProperties -->
<g id="node4" class="node">
<title>QAProperties</title>
<polygon fill="lightgrey" stroke="lightgrey" points="273,-122 192,-122 192,-86 273,-86 273,-122"/>
<text text-anchor="middle" x="232.5" y="-101.5" font-family="Helvetica,sans-Serif" font-size="10.00">qa.properties</text>
</g>
<!-- BuildScript&#45;&gt;QAProperties -->
<g id="edge3" class="edge">
<title>BuildScript&#45;&gt;QAProperties</title>
<path fill="none" stroke="black" stroke-dasharray="5,2" d="M128.68,-136.04C144.99,-130.96 164.64,-124.83 182.38,-119.31"/>
<polygon fill="black" stroke="black" points="183.49,-122.62 192,-116.31 181.41,-115.94 183.49,-122.62"/>
</g>
<!-- ProductionProperties -->
<g id="node5" class="node">
<title>ProductionProperties</title>
<polygon fill="lightgrey" stroke="lightgrey" points="293,-36 172,-36 172,0 293,0 293,-36"/>
<text text-anchor="middle" x="232.5" y="-15.5" font-family="Helvetica,sans-Serif" font-size="10.00">production.properties</text>
</g>
<!-- BuildScript&#45;&gt;ProductionProperties -->
<g id="edge4" class="edge">
<title>BuildScript&#45;&gt;ProductionProperties</title>
<path fill="none" stroke="black" stroke-dasharray="5,2" d="M108.02,-128.84C122.97,-110.69 147.42,-82.46 171.5,-61 178.88,-54.42 187.27,-47.9 195.38,-42"/>
<polygon fill="black" stroke="black" points="197.56,-44.74 203.68,-36.1 193.51,-39.04 197.56,-44.74"/>
</g>
</g>
</svg>
