<?xml version="1.0" encoding="UTF-8" standalone="no"?>
<!DOCTYPE svg PUBLIC "-//W3C//DTD SVG 1.1//EN"
 "http://www.w3.org/Graphics/SVG/1.1/DTD/svg11.dtd">
<!-- Generated by graphviz version 2.43.0 (0)
 -->
<!-- Title: DecoupleBuildScript Pages: 1 -->
<svg width="325pt" height="146pt"
 viewBox="0.00 0.00 325.00 146.00" xmlns="http://www.w3.org/2000/svg" xmlns:xlink="http://www.w3.org/1999/xlink">
<g id="graph0" class="graph" transform="scale(1 1) rotate(0) translate(4 142)">
<title>DecoupleBuildScript</title>
<polygon fill="white" stroke="transparent" points="-4,4 -4,-142 321,-142 321,4 -4,4"/>
<text text-anchor="middle" x="158.5" y="-122.8" font-family="Times,serif" font-size="14.00">Decoupling your build script from the IDE</text>
<!-- IDE -->
<g id="node1" class="node">
<title>IDE</title>
<path fill="lightgrey" stroke="lightgrey" d="M116,-115C116,-115 86,-115 86,-115 80,-115 74,-109 74,-103 74,-103 74,-91 74,-91 74,-85 80,-79 86,-79 86,-79 116,-79 116,-79 122,-79 128,-85 128,-91 128,-91 128,-103 128,-103 128,-109 122,-115 116,-115"/>
<text text-anchor="middle" x="101" y="-94.5" font-family="Helvetica,sans-Serif" font-size="10.00">IDE</text>
</g>
<!-- BuildScript -->
<g id="node3" class="node">
<title>BuildScript</title>
<path fill="white" stroke="white" d="M234.5,-75C234.5,-75 186.5,-75 186.5,-75 180.5,-75 174.5,-69 174.5,-63 174.5,-63 174.5,-51 174.5,-51 174.5,-45 180.5,-39 186.5,-39 186.5,-39 234.5,-39 234.5,-39 240.5,-39 246.5,-45 246.5,-51 246.5,-51 246.5,-63 246.5,-63 246.5,-69 240.5,-75 234.5,-75"/>
<text text-anchor="middle" x="210.5" y="-54.5" font-family="Helvetica,sans-Serif" font-size="10.00">Build Script</text>
</g>
<!-- IDE&#45;&gt;BuildScript -->
<g id="edge1" class="edge">
<title>IDE&#45;&gt;BuildScript</title>
<path fill="none" stroke="black" stroke-dasharray="5,2" d="M128.02,-87.32C139.11,-83.19 152.38,-78.26 164.95,-73.58"/>
<polygon fill="black" stroke="black" points="166.22,-76.84 174.37,-70.07 163.78,-70.28 166.22,-76.84"/>
</g>
<!-- CIServer -->
<g id="node2" class="node">
<title>CIServer</title>
<path fill="lightgrey" stroke="lightgrey" d="M119.5,-36C119.5,-36 82.5,-36 82.5,-36 76.5,-36 70.5,-30 70.5,-24 70.5,-24 70.5,-12 70.5,-12 70.5,-6 76.5,0 82.5,0 82.5,0 119.5,0 119.5,0 125.5,0 131.5,-6 131.5,-12 131.5,-12 131.5,-24 131.5,-24 131.5,-30 125.5,-36 119.5,-36"/>
<text text-anchor="middle" x="101" y="-15.5" font-family="Helvetica,sans-Serif" font-size="10.00">CI Server</text>
</g>
<!-- CIServer&#45;&gt;BuildScript -->
<g id="edge2" class="edge">
<title>CIServer&#45;&gt;BuildScript</title>
<path fill="none" stroke="black" stroke-dasharray="5,2" d="M131.66,-28.76C141.85,-32.46 153.5,-36.68 164.62,-40.72"/>
<polygon fill="black" stroke="black" points="163.62,-44.08 174.21,-44.2 166.01,-37.5 163.62,-44.08"/>
</g>
</g>
</svg>
