<?xml version="1.0" encoding="UTF-8" standalone="no"?>
<!DOCTYPE svg PUBLIC "-//W3C//DTD SVG 1.1//EN"
 "http://www.w3.org/Graphics/SVG/1.1/DTD/svg11.dtd">
<!-- Generated by graphviz version 2.43.0 (0)
 -->
<!-- Title: StagedBuildProcess Pages: 1 -->
<svg width="1356pt" height="320pt"
 viewBox="0.00 0.00 1356.00 320.00" xmlns="http://www.w3.org/2000/svg" xmlns:xlink="http://www.w3.org/1999/xlink">
<g id="graph0" class="graph" transform="scale(1 1) rotate(0) translate(4 316)">
<title>StagedBuildProcess</title>
<polygon fill="white" stroke="transparent" points="-4,4 -4,-316 1352,-316 1352,4 -4,4"/>
<text text-anchor="middle" x="674" y="-296.8" font-family="Times,serif" font-size="14.00">A Staged Build Process</text>
<!-- Developer1 -->
<g id="node1" class="node">
<title>Developer1</title>
<path fill="none" stroke="lightgrey" d="M55,-68C55,-68 12,-68 12,-68 6,-68 0,-62 0,-56 0,-56 0,-44 0,-44 0,-38 6,-32 12,-32 12,-32 55,-32 55,-32 61,-32 67,-38 67,-44 67,-44 67,-56 67,-56 67,-62 61,-68 55,-68"/>
<text text-anchor="middle" x="33.5" y="-47.5" font-family="Helvetica,sans-Serif" font-size="10.00">Developer</text>
</g>
<!-- VCS -->
<g id="node3" class="node">
<title>VCS</title>
<polygon fill="lightgrey" stroke="lightgrey" points="394,-130 248,-130 248,-94 394,-94 394,-130"/>
<text text-anchor="middle" x="321" y="-109.5" font-family="Helvetica,sans-Serif" font-size="10.00">Version Control Repository</text>
</g>
<!-- Developer1&#45;&gt;VCS -->
<g id="edge1" class="edge">
<title>Developer1&#45;&gt;VCS</title>
<path fill="none" stroke="black" d="M67.25,-57.11C108.56,-66.08 181.07,-81.83 237.86,-94.16"/>
<polygon fill="black" stroke="black" points="237.39,-97.64 247.9,-96.34 238.87,-90.8 237.39,-97.64"/>
<text text-anchor="middle" x="157.5" y="-91.8" font-family="Times,serif" font-size="14.00">Commit Changes</text>
</g>
<!-- Developer2 -->
<g id="node2" class="node">
<title>Developer2</title>
<path fill="none" stroke="lightgrey" d="M1298.5,-93C1298.5,-93 1255.5,-93 1255.5,-93 1249.5,-93 1243.5,-87 1243.5,-81 1243.5,-81 1243.5,-69 1243.5,-69 1243.5,-63 1249.5,-57 1255.5,-57 1255.5,-57 1298.5,-57 1298.5,-57 1304.5,-57 1310.5,-63 1310.5,-69 1310.5,-69 1310.5,-81 1310.5,-81 1310.5,-87 1304.5,-93 1298.5,-93"/>
<text text-anchor="middle" x="1277" y="-72.5" font-family="Helvetica,sans-Serif" font-size="10.00">Developer</text>
</g>
<!-- Developer2&#45;&gt;VCS -->
<g id="edge2" class="edge">
<title>Developer2&#45;&gt;VCS</title>
<path fill="none" stroke="black" d="M1243.47,-77.59C1224.16,-79.06 1199.2,-80.83 1177,-82 893.54,-96.99 556.82,-106.32 404.32,-110.08"/>
<polygon fill="black" stroke="black" points="404.01,-106.59 394.1,-110.33 404.18,-113.59 404.01,-106.59"/>
<text text-anchor="middle" x="713" y="-106.8" font-family="Times,serif" font-size="14.00">Commit Changes</text>
</g>
<!-- CIServer -->
<g id="node4" class="node">
<title>CIServer</title>
<polygon fill="lightgrey" stroke="lightgrey" points="621,-224 479,-224 479,-188 621,-188 621,-224"/>
<text text-anchor="middle" x="550" y="-209" font-family="Helvetica,sans-Serif" font-size="10.00">CI Server</text>
<text text-anchor="middle" x="550" y="-198" font-family="Helvetica,sans-Serif" font-size="10.00">Integration Build Machine</text>
</g>
<!-- VCS&#45;&gt;CIServer -->
<g id="edge3" class="edge">
<title>VCS&#45;&gt;CIServer</title>
<path fill="none" stroke="black" d="M365.5,-130.01C402.68,-145.41 456.31,-167.62 496,-184.05"/>
<polygon fill="black" stroke="black" points="494.68,-187.3 505.26,-187.89 497.36,-180.83 494.68,-187.3"/>
<text text-anchor="middle" x="436.5" y="-167.8" font-family="Times,serif" font-size="14.00">Poll</text>
</g>
<!-- CommitBuild -->
<g id="node5" class="node">
<title>CommitBuild</title>
<polygon fill="white" stroke="white" points="948,-289 805,-289 805,-215 954,-215 954,-283 948,-289"/>
<polyline fill="none" stroke="white" points="948,-289 948,-283 "/>
<polyline fill="none" stroke="white" points="954,-283 948,-283 "/>
<text text-anchor="middle" x="879.5" y="-277" font-family="Helvetica,sans-Serif" font-size="10.00">Commit Build</text>
<text text-anchor="middle" x="879.5" y="-266" font-family="Helvetica,sans-Serif" font-size="10.00">(Lightweight)</text>
<text text-anchor="middle" x="879.5" y="-255" font-family="Helvetica,sans-Serif" font-size="10.00">Compile Source Code,</text>
<text text-anchor="middle" x="879.5" y="-244" font-family="Helvetica,sans-Serif" font-size="10.00">Integrate Database,</text>
<text text-anchor="middle" x="879.5" y="-233" font-family="Helvetica,sans-Serif" font-size="10.00">Run Tests, Run Inspections,</text>
<text text-anchor="middle" x="879.5" y="-222" font-family="Helvetica,sans-Serif" font-size="10.00">Deploy Software</text>
</g>
<!-- CIServer&#45;&gt;CommitBuild -->
<g id="edge4" class="edge">
<title>CIServer&#45;&gt;CommitBuild</title>
<path fill="none" stroke="black" d="M621.26,-215.87C672.11,-223.01 741.05,-232.69 794.77,-240.24"/>
<polygon fill="black" stroke="black" points="794.56,-243.74 804.95,-241.67 795.54,-236.81 794.56,-243.74"/>
<text text-anchor="middle" x="713" y="-240.8" font-family="Times,serif" font-size="14.00">Generate</text>
</g>
<!-- Feedback -->
<g id="node7" class="node">
<title>Feedback</title>
<path fill="none" stroke="lightgrey" d="M928.5,-36C928.5,-36 830.5,-36 830.5,-36 824.5,-36 818.5,-30 818.5,-24 818.5,-24 818.5,-12 818.5,-12 818.5,-6 824.5,0 830.5,0 830.5,0 928.5,0 928.5,0 934.5,0 940.5,-6 940.5,-12 940.5,-12 940.5,-24 940.5,-24 940.5,-30 934.5,-36 928.5,-36"/>
<text text-anchor="middle" x="879.5" y="-15.5" font-family="Helvetica,sans-Serif" font-size="10.00">Feedback Mechanism</text>
</g>
<!-- CIServer&#45;&gt;Feedback -->
<g id="edge6" class="edge">
<title>CIServer&#45;&gt;Feedback</title>
<path fill="none" stroke="black" stroke-dasharray="5,2" d="M621.14,-191.08C667.66,-179 728.62,-158.85 776,-128 810.44,-105.58 841.29,-69.13 859.93,-44.39"/>
<polygon fill="black" stroke="black" points="862.88,-46.29 866.01,-36.17 857.25,-42.13 862.88,-46.29"/>
<text text-anchor="middle" x="713" y="-185.8" font-family="Times,serif" font-size="14.00">Trigger Feedback</text>
</g>
<!-- SecondaryBuild -->
<g id="node6" class="node">
<title>SecondaryBuild</title>
<polygon fill="white" stroke="white" points="1342,-289 1206,-289 1206,-215 1348,-215 1348,-283 1342,-289"/>
<polyline fill="none" stroke="white" points="1342,-289 1342,-283 "/>
<polyline fill="none" stroke="white" points="1348,-283 1342,-283 "/>
<text text-anchor="middle" x="1277" y="-277" font-family="Helvetica,sans-Serif" font-size="10.00">Secondary Build</text>
<text text-anchor="middle" x="1277" y="-266" font-family="Helvetica,sans-Serif" font-size="10.00">(Heavyweight)</text>
<text text-anchor="middle" x="1277" y="-255" font-family="Helvetica,sans-Serif" font-size="10.00">Longer Running Tests</text>
<text text-anchor="middle" x="1277" y="-244" font-family="Helvetica,sans-Serif" font-size="10.00">(Component, System,</text>
<text text-anchor="middle" x="1277" y="-233" font-family="Helvetica,sans-Serif" font-size="10.00">Functional, Performance),</text>
<text text-anchor="middle" x="1277" y="-222" font-family="Helvetica,sans-Serif" font-size="10.00">Code Coverage</text>
</g>
<!-- CommitBuild&#45;&gt;SecondaryBuild -->
<g id="edge5" class="edge">
<title>CommitBuild&#45;&gt;SecondaryBuild</title>
<path fill="none" stroke="black" d="M954.43,-252C1023.04,-252 1124.94,-252 1195.57,-252"/>
<polygon fill="black" stroke="black" points="1195.76,-255.5 1205.76,-252 1195.76,-248.5 1195.76,-255.5"/>
<text text-anchor="middle" x="1080" y="-255.8" font-family="Times,serif" font-size="14.00">If Commit Build Successful</text>
</g>
<!-- Feedback&#45;&gt;Developer1 -->
<g id="edge7" class="edge">
<title>Feedback&#45;&gt;Developer1</title>
<path fill="none" stroke="black" stroke-dasharray="5,2" d="M818.41,-20.28C656.95,-26.4 216.61,-43.1 77.33,-48.38"/>
<polygon fill="black" stroke="black" points="76.93,-44.89 67.07,-48.77 77.19,-51.88 76.93,-44.89"/>
</g>
<!-- Feedback&#45;&gt;Developer2 -->
<g id="edge8" class="edge">
<title>Feedback&#45;&gt;Developer2</title>
<path fill="none" stroke="black" stroke-dasharray="5,2" d="M940.57,-26.66C1021.14,-38.27 1162.25,-58.61 1233,-68.8"/>
<polygon fill="black" stroke="black" points="1232.92,-72.33 1243.32,-70.29 1233.92,-65.4 1232.92,-72.33"/>
</g>
</g>
</svg>
