<?xml version="1.0" encoding="UTF-8" standalone="no"?>
<!DOCTYPE svg PUBLIC "-//W3C//DTD SVG 1.1//EN"
 "http://www.w3.org/Graphics/SVG/1.1/DTD/svg11.dtd">
<!-- Generated by graphviz version 2.43.0 (0)
 -->
<!-- Title: BuildSoftwareNode Pages: 1 -->
<svg width="295pt" height="70pt"
 viewBox="0.00 0.00 295.00 70.00" xmlns="http://www.w3.org/2000/svg" xmlns:xlink="http://www.w3.org/1999/xlink">
<g id="graph0" class="graph" transform="scale(1 1) rotate(0) translate(4 66)">
<title>BuildSoftwareNode</title>
<polygon fill="white" stroke="transparent" points="-4,4 -4,-66 291,-66 291,4 -4,4"/>
<text text-anchor="middle" x="143.5" y="-45.2" font-family="Times,serif" font-size="16.00">Continuous Integration Principle</text>
<!-- BuildSoftwareNode -->
<g id="node1" class="node">
<title>BuildSoftwareNode</title>
<path fill="none" stroke="black" d="M255,-36C255,-36 32,-36 32,-36 26,-36 20,-30 20,-24 20,-24 20,-12 20,-12 20,-6 26,0 32,0 32,0 255,0 255,0 261,0 267,-6 267,-12 267,-12 267,-24 267,-24 267,-30 261,-36 255,-36"/>
<text text-anchor="middle" x="143.5" y="-14.3" font-family="Times,serif" font-size="14.00">Build Software at Every Change</text>
</g>
</g>
</svg>
