<?xml version="1.0" encoding="UTF-8" standalone="no"?>
<!DOCTYPE svg PUBLIC "-//W3C//DTD SVG 1.1//EN"
 "http://www.w3.org/Graphics/SVG/1.1/DTD/svg11.dtd">
<!-- Generated by graphviz version 2.43.0 (0)
 -->
<!-- Title: RepositoryVersioning Pages: 1 -->
<svg width="913pt" height="304pt"
 viewBox="0.00 0.00 913.19 304.00" xmlns="http://www.w3.org/2000/svg" xmlns:xlink="http://www.w3.org/1999/xlink">
<g id="graph0" class="graph" transform="scale(1 1) rotate(0) translate(4 300)">
<title>RepositoryVersioning</title>
<polygon fill="white" stroke="transparent" points="-4,4 -4,-300 909.19,-300 909.19,4 -4,4"/>
<text text-anchor="middle" x="452.59" y="-280.8" font-family="Times,serif" font-size="14.00">Foo.cs and Bar.cs in the Same Repository</text>
<g id="clust1" class="cluster">
<title>cluster_Files</title>
<polygon fill="none" stroke="black" stroke-dasharray="5,2" points="445.19,-73 445.19,-202 578.19,-202 578.19,-73 445.19,-73"/>
<text text-anchor="middle" x="511.69" y="-186.8" font-family="Times,serif" font-size="14.00">Repository Files</text>
</g>
<!-- Mainline -->
<g id="node1" class="node">
<title>Mainline</title>
<polygon fill="#f0f0f0" stroke="black" points="83,-172 0,-172 0,-136 83,-136 83,-172"/>
<text text-anchor="middle" x="41.5" y="-150.3" font-family="Times,serif" font-size="14.00">/Mainline</text>
</g>
<!-- Release4 -->
<g id="node4" class="node">
<title>Release4</title>
<polygon fill="#f0f0f0" stroke="black" points="206.5,-207 120.5,-207 120.5,-171 206.5,-171 206.5,-207"/>
<text text-anchor="middle" x="163.5" y="-185.3" font-family="Times,serif" font-size="14.00">Release 4</text>
</g>
<!-- Mainline&#45;&gt;Release4 -->
<g id="edge1" class="edge">
<title>Mainline&#45;&gt;Release4</title>
<path fill="none" stroke="black" d="M83.13,-165.85C91.91,-168.41 101.32,-171.16 110.48,-173.83"/>
<polygon fill="black" stroke="black" points="109.7,-177.24 120.28,-176.68 111.66,-170.52 109.7,-177.24"/>
</g>
<!-- FeatureB -->
<g id="node9" class="node">
<title>FeatureB</title>
<polygon fill="#f0f0f0" stroke="black" points="207,-146 120,-146 120,-110 207,-110 207,-146"/>
<text text-anchor="middle" x="163.5" y="-124.3" font-family="Times,serif" font-size="14.00">Feature B</text>
</g>
<!-- Mainline&#45;&gt;FeatureB -->
<g id="edge8" class="edge">
<title>Mainline&#45;&gt;FeatureB</title>
<path fill="none" stroke="black" d="M83.13,-145.2C91.72,-143.34 100.91,-141.34 109.88,-139.4"/>
<polygon fill="black" stroke="black" points="110.83,-142.78 119.87,-137.24 109.35,-135.93 110.83,-142.78"/>
</g>
<!-- Rel4Maint -->
<g id="node2" class="node">
<title>Rel4Maint</title>
<polygon fill="#f0f0f0" stroke="black" points="355.09,-214 255.09,-214 255.09,-178 355.09,-178 355.09,-214"/>
<text text-anchor="middle" x="305.09" y="-192.3" font-family="Times,serif" font-size="14.00">/Rel4&#45;Maint</text>
</g>
<!-- Release41 -->
<g id="node5" class="node">
<title>Release41</title>
<polygon fill="#f0f0f0" stroke="black" points="561.19,-246 462.19,-246 462.19,-210 561.19,-210 561.19,-246"/>
<text text-anchor="middle" x="511.69" y="-224.3" font-family="Times,serif" font-size="14.00">Release 4.1</text>
</g>
<!-- Rel4Maint&#45;&gt;Release41 -->
<g id="edge3" class="edge">
<title>Rel4Maint&#45;&gt;Release41</title>
<path fill="none" stroke="black" d="M355.21,-205.08C364.81,-206.78 374.81,-208.49 384.19,-210 406.31,-213.56 430.67,-217.11 452.05,-220.11"/>
<polygon fill="black" stroke="black" points="451.58,-223.57 461.97,-221.49 452.55,-216.64 451.58,-223.57"/>
</g>
<!-- Foo45 -->
<g id="node13" class="node">
<title>Foo45</title>
<polygon fill="#f0f0f0" stroke="black" points="556.19,-171 467.19,-171 467.19,-135 556.19,-135 556.19,-171"/>
<text text-anchor="middle" x="511.69" y="-149.3" font-family="Times,serif" font-size="14.00">Foo.cs 4.5</text>
</g>
<!-- Rel4Maint&#45;&gt;Foo45 -->
<g id="edge6" class="edge">
<title>Rel4Maint&#45;&gt;Foo45</title>
<path fill="none" stroke="black" d="M355.1,-185.7C385.82,-179.24 425.44,-170.92 457.01,-164.28"/>
<polygon fill="black" stroke="black" points="457.89,-167.67 466.96,-162.19 456.45,-160.82 457.89,-167.67"/>
<text text-anchor="middle" x="407.19" y="-181.8" font-family="Times,serif" font-size="14.00">Foo.cs</text>
</g>
<!-- Rel8Maint -->
<g id="node3" class="node">
<title>Rel8Maint</title>
<polygon fill="#f0f0f0" stroke="black" points="355.09,-106 255.09,-106 255.09,-70 355.09,-70 355.09,-106"/>
<text text-anchor="middle" x="305.09" y="-84.3" font-family="Times,serif" font-size="14.00">/Rel8&#45;Maint</text>
</g>
<!-- Release8 -->
<g id="node7" class="node">
<title>Release8</title>
<polygon fill="#f0f0f0" stroke="black" points="554.69,-63 468.69,-63 468.69,-27 554.69,-27 554.69,-63"/>
<text text-anchor="middle" x="511.69" y="-41.3" font-family="Times,serif" font-size="14.00">Release 8</text>
</g>
<!-- Rel8Maint&#45;&gt;Release8 -->
<g id="edge10" class="edge">
<title>Rel8Maint&#45;&gt;Release8</title>
<path fill="none" stroke="black" d="M355.1,-77.7C386.36,-71.13 426.82,-62.63 458.65,-55.94"/>
<polygon fill="black" stroke="black" points="459.59,-59.32 468.65,-53.83 458.15,-52.47 459.59,-59.32"/>
</g>
<!-- Bar83 -->
<g id="node14" class="node">
<title>Bar83</title>
<polygon fill="#f0f0f0" stroke="black" points="555.19,-117 468.19,-117 468.19,-81 555.19,-81 555.19,-117"/>
<text text-anchor="middle" x="511.69" y="-95.3" font-family="Times,serif" font-size="14.00">Bar.cs 8.3</text>
</g>
<!-- Rel8Maint&#45;&gt;Bar83 -->
<g id="edge14" class="edge">
<title>Rel8Maint&#45;&gt;Bar83</title>
<path fill="none" stroke="black" d="M355.1,-90.63C386.01,-92.3 425.92,-94.44 457.58,-96.14"/>
<polygon fill="black" stroke="black" points="457.8,-99.66 467.98,-96.7 458.18,-92.67 457.8,-99.66"/>
<text text-anchor="middle" x="407.19" y="-97.8" font-family="Times,serif" font-size="14.00">Bar.cs</text>
</g>
<!-- Release4&#45;&gt;Rel4Maint -->
<g id="edge2" class="edge">
<title>Release4&#45;&gt;Rel4Maint</title>
<path fill="none" stroke="black" d="M206.76,-191.12C218.67,-191.72 231.84,-192.38 244.56,-193.01"/>
<polygon fill="black" stroke="black" points="244.46,-196.51 254.62,-193.52 244.81,-189.52 244.46,-196.51"/>
</g>
<!-- FeatureA -->
<g id="node8" class="node">
<title>FeatureA</title>
<polygon fill="#f0f0f0" stroke="black" points="719.19,-219 633.19,-219 633.19,-183 719.19,-183 719.19,-219"/>
<text text-anchor="middle" x="676.19" y="-197.3" font-family="Times,serif" font-size="14.00">Feature A</text>
</g>
<!-- Release41&#45;&gt;FeatureA -->
<g id="edge4" class="edge">
<title>Release41&#45;&gt;FeatureA</title>
<path fill="none" stroke="black" d="M561.44,-219.9C580.87,-216.67 603.26,-212.95 623.01,-209.67"/>
<polygon fill="black" stroke="black" points="623.78,-213.09 633.07,-208 622.63,-206.18 623.78,-213.09"/>
</g>
<!-- Release4Fixes -->
<g id="node11" class="node">
<title>Release4Fixes</title>
<polygon fill="#f0f0f0" stroke="black" points="740.19,-273 612.19,-273 612.19,-237 740.19,-237 740.19,-273"/>
<text text-anchor="middle" x="676.19" y="-251.3" font-family="Times,serif" font-size="14.00">Release 4 Fixes</text>
</g>
<!-- Release41&#45;&gt;Release4Fixes -->
<g id="edge5" class="edge">
<title>Release41&#45;&gt;Release4Fixes</title>
<path fill="none" stroke="black" d="M561.44,-236.1C574.23,-238.23 588.31,-240.56 602.07,-242.85"/>
<polygon fill="black" stroke="black" points="601.57,-246.32 612.01,-244.5 602.72,-239.41 601.57,-246.32"/>
</g>
<!-- Release81 -->
<g id="node6" class="node">
<title>Release81</title>
<polygon fill="#f0f0f0" stroke="black" points="725.69,-63 626.69,-63 626.69,-27 725.69,-27 725.69,-63"/>
<text text-anchor="middle" x="676.19" y="-41.3" font-family="Times,serif" font-size="14.00">Release 8.1</text>
</g>
<!-- FeatureE -->
<g id="node10" class="node">
<title>FeatureE</title>
<polygon fill="#f0f0f0" stroke="black" points="904.69,-90 777.69,-90 777.69,-54 904.69,-54 904.69,-90"/>
<text text-anchor="middle" x="841.19" y="-68.3" font-family="Times,serif" font-size="14.00">Feature E, F, M</text>
</g>
<!-- Release81&#45;&gt;FeatureE -->
<g id="edge12" class="edge">
<title>Release81&#45;&gt;FeatureE</title>
<path fill="none" stroke="black" d="M726.09,-53.1C739.07,-55.25 753.37,-57.62 767.33,-59.93"/>
<polygon fill="black" stroke="black" points="766.97,-63.42 777.41,-61.6 768.12,-56.51 766.97,-63.42"/>
</g>
<!-- Release8Fixes -->
<g id="node12" class="node">
<title>Release8Fixes</title>
<polygon fill="#f0f0f0" stroke="black" points="905.19,-36 777.19,-36 777.19,0 905.19,0 905.19,-36"/>
<text text-anchor="middle" x="841.19" y="-14.3" font-family="Times,serif" font-size="14.00">Release 8 Fixes</text>
</g>
<!-- Release81&#45;&gt;Release8Fixes -->
<g id="edge13" class="edge">
<title>Release81&#45;&gt;Release8Fixes</title>
<path fill="none" stroke="black" d="M726.09,-36.9C739,-34.76 753.21,-32.41 767.09,-30.11"/>
<polygon fill="black" stroke="black" points="767.82,-33.54 777.11,-28.45 766.68,-26.63 767.82,-33.54"/>
</g>
<!-- Release8&#45;&gt;Release81 -->
<g id="edge11" class="edge">
<title>Release8&#45;&gt;Release81</title>
<path fill="none" stroke="black" d="M554.96,-45C573.7,-45 596.08,-45 616.41,-45"/>
<polygon fill="black" stroke="black" points="616.51,-48.5 626.51,-45 616.51,-41.5 616.51,-48.5"/>
</g>
<!-- FeatureB&#45;&gt;Rel8Maint -->
<g id="edge9" class="edge">
<title>FeatureB&#45;&gt;Rel8Maint</title>
<path fill="none" stroke="black" d="M207.14,-115.78C219.15,-112.34 232.44,-108.53 245.22,-104.87"/>
<polygon fill="black" stroke="black" points="246.22,-108.23 254.87,-102.11 244.29,-101.5 246.22,-108.23"/>
</g>
<!-- Label378 -->
<g id="node15" class="node">
<title>Label378</title>
<ellipse fill="#cfe2f3" stroke="black" cx="305.09" cy="-142" rx="61.19" ry="18"/>
<text text-anchor="middle" x="305.09" y="-138.3" font-family="Times,serif" font-size="14.00">Label 3_78</text>
</g>
<!-- Label378&#45;&gt;Foo45 -->
<g id="edge7" class="edge">
<title>Label378&#45;&gt;Foo45</title>
<path fill="none" stroke="black" d="M365.27,-145.18C394.18,-146.74 428.7,-148.59 456.86,-150.11"/>
<polygon fill="black" stroke="black" points="456.75,-153.6 466.92,-150.65 457.12,-146.61 456.75,-153.6"/>
</g>
<!-- Label378&#45;&gt;Bar83 -->
<g id="edge15" class="edge">
<title>Label378&#45;&gt;Bar83</title>
<path fill="none" stroke="black" d="M355.36,-131.65C386.41,-125.12 426.46,-116.7 458.12,-110.05"/>
<polygon fill="black" stroke="black" points="459.02,-113.44 468.08,-107.95 457.58,-106.59 459.02,-113.44"/>
</g>
</g>
</svg>
