<?xml version="1.0" encoding="UTF-8" standalone="no"?>
<!DOCTYPE svg PUBLIC "-//W3C//DTD SVG 1.1//EN"
 "http://www.w3.org/Graphics/SVG/1.1/DTD/svg11.dtd">
<!-- Generated by graphviz version 2.43.0 (0)
 -->
<!-- Title: SingleSourceDatabaseChanges Pages: 1 -->
<svg width="1159pt" height="240pt"
 viewBox="0.00 0.00 1159.00 240.00" xmlns="http://www.w3.org/2000/svg" xmlns:xlink="http://www.w3.org/1999/xlink">
<g id="graph0" class="graph" transform="scale(1 1) rotate(0) translate(4 236)">
<title>SingleSourceDatabaseChanges</title>
<polygon fill="white" stroke="transparent" points="-4,4 -4,-236 1155,-236 1155,4 -4,4"/>
<text text-anchor="middle" x="575.5" y="-215.2" font-family="Times,serif" font-size="16.00">Single Source for Database Changes</text>
<!-- Mike -->
<g id="node1" class="node">
<title>Mike</title>
<polygon fill="lightgray" stroke="lightgray" points="171.5,-94 168.5,-98 147.5,-98 144.5,-94 13.5,-94 13.5,-56 171.5,-56 171.5,-94"/>
<text text-anchor="middle" x="92.5" y="-78.8" font-family="Times,serif" font-size="14.00">Mike</text>
<text text-anchor="middle" x="92.5" y="-63.8" font-family="Times,serif" font-size="14.00">(data_definition.sql)</text>
</g>
<!-- VersionControl -->
<g id="node3" class="node">
<title>VersionControl</title>
<path fill="lightblue" stroke="lightblue" d="M463,-61.73C463,-63.53 421.54,-65 370.5,-65 319.46,-65 278,-63.53 278,-61.73 278,-61.73 278,-32.27 278,-32.27 278,-30.47 319.46,-29 370.5,-29 421.54,-29 463,-30.47 463,-32.27 463,-32.27 463,-61.73 463,-61.73"/>
<path fill="none" stroke="lightblue" d="M463,-61.73C463,-59.92 421.54,-58.45 370.5,-58.45 319.46,-58.45 278,-59.92 278,-61.73"/>
<text text-anchor="middle" x="370.5" y="-43.3" font-family="Times,serif" font-size="14.00">Version Control System</text>
</g>
<!-- Mike&#45;&gt;VersionControl -->
<g id="edge1" class="edge">
<title>Mike&#45;&gt;VersionControl</title>
<path fill="none" stroke="black" d="M171.85,-67.05C201.62,-64.03 235.97,-60.55 267.6,-57.34"/>
<polygon fill="black" stroke="black" points="268.17,-60.8 277.77,-56.31 267.47,-53.83 268.17,-60.8"/>
<text text-anchor="middle" x="231.5" y="-66.8" font-family="Times,serif" font-size="14.00">Commit</text>
</g>
<!-- Sandy -->
<g id="node2" class="node">
<title>Sandy</title>
<polygon fill="lightgray" stroke="lightgray" points="185,-38 182,-42 161,-42 158,-38 0,-38 0,0 185,0 185,-38"/>
<text text-anchor="middle" x="92.5" y="-22.8" font-family="Times,serif" font-size="14.00">Sandy</text>
<text text-anchor="middle" x="92.5" y="-7.8" font-family="Times,serif" font-size="14.00">(data_manipulation.sql)</text>
</g>
<!-- Sandy&#45;&gt;VersionControl -->
<g id="edge2" class="edge">
<title>Sandy&#45;&gt;VersionControl</title>
<path fill="none" stroke="black" d="M185.02,-28.28C211.46,-30.97 240.47,-33.91 267.5,-36.65"/>
<polygon fill="black" stroke="black" points="267.45,-40.17 277.76,-37.69 268.16,-33.2 267.45,-40.17"/>
<text text-anchor="middle" x="231.5" y="-38.8" font-family="Times,serif" font-size="14.00">Commit</text>
</g>
<!-- BuildMachine -->
<g id="node5" class="node">
<title>BuildMachine</title>
<polygon fill="white" stroke="white" points="739,-66 624,-66 620,-62 620,-28 735,-28 739,-32 739,-66"/>
<polyline fill="none" stroke="white" points="735,-62 620,-62 "/>
<polyline fill="none" stroke="white" points="735,-62 735,-28 "/>
<polyline fill="none" stroke="white" points="735,-62 739,-66 "/>
<text text-anchor="middle" x="679.5" y="-50.8" font-family="Times,serif" font-size="14.00">Integration</text>
<text text-anchor="middle" x="679.5" y="-35.8" font-family="Times,serif" font-size="14.00">Build Machine</text>
</g>
<!-- VersionControl&#45;&gt;BuildMachine -->
<g id="edge3" class="edge">
<title>VersionControl&#45;&gt;BuildMachine</title>
<path fill="none" stroke="black" d="M463.19,-47C510.14,-47 566.34,-47 609.55,-47"/>
<polygon fill="black" stroke="black" points="609.68,-50.5 619.68,-47 609.68,-43.5 609.68,-50.5"/>
<text text-anchor="middle" x="534" y="-50.8" font-family="Times,serif" font-size="14.00">Fetch Changes</text>
</g>
<!-- Database -->
<g id="node4" class="node">
<title>Database</title>
<path fill="lightblue" stroke="lightblue" d="M1151,-68.48C1151,-71.11 1101.47,-73.25 1040.5,-73.25 979.53,-73.25 930,-71.11 930,-68.48 930,-68.48 930,-25.52 930,-25.52 930,-22.89 979.53,-20.75 1040.5,-20.75 1101.47,-20.75 1151,-22.89 1151,-25.52 1151,-25.52 1151,-68.48 1151,-68.48"/>
<path fill="none" stroke="lightblue" d="M1151,-68.48C1151,-65.84 1101.47,-63.7 1040.5,-63.7 979.53,-63.7 930,-65.84 930,-68.48"/>
<text text-anchor="middle" x="1040.5" y="-50.8" font-family="Times,serif" font-size="14.00">DB</text>
<text text-anchor="middle" x="1040.5" y="-35.8" font-family="Times,serif" font-size="14.00">(Integration Build Database)</text>
</g>
<!-- BuildMachine&#45;&gt;Database -->
<g id="edge4" class="edge">
<title>BuildMachine&#45;&gt;Database</title>
<path fill="none" stroke="black" d="M739.38,-47C788.18,-47 859.13,-47 919.79,-47"/>
<polygon fill="black" stroke="black" points="919.82,-50.5 929.82,-47 919.82,-43.5 919.82,-50.5"/>
<text text-anchor="middle" x="842" y="-50.8" font-family="Times,serif" font-size="14.00">Build and Integrate</text>
</g>
<!-- Time1 -->
<g id="node6" class="node">
<title>Time1</title>
<polygon fill="transparent" stroke="transparent" points="158.5,-150 26.5,-150 26.5,-112 158.5,-112 158.5,-150"/>
<text text-anchor="middle" x="92.5" y="-134.8" font-family="Times,serif" font-size="14.00">10:00 AM</text>
<text text-anchor="middle" x="92.5" y="-119.8" font-family="Times,serif" font-size="14.00">(Mike&#39;s Change)</text>
</g>
<!-- Time2 -->
<g id="node7" class="node">
<title>Time2</title>
<polygon fill="transparent" stroke="transparent" points="163,-206 22,-206 22,-168 163,-168 163,-206"/>
<text text-anchor="middle" x="92.5" y="-190.8" font-family="Times,serif" font-size="14.00">10:15 AM</text>
<text text-anchor="middle" x="92.5" y="-175.8" font-family="Times,serif" font-size="14.00">(Sandy&#39;s Change)</text>
</g>
<!-- Time3 -->
<g id="node8" class="node">
<title>Time3</title>
<polygon fill="transparent" stroke="transparent" points="754,-122 605,-122 605,-84 754,-84 754,-122"/>
<text text-anchor="middle" x="679.5" y="-106.8" font-family="Times,serif" font-size="14.00">10:30 AM</text>
<text text-anchor="middle" x="679.5" y="-91.8" font-family="Times,serif" font-size="14.00">(Integration Build)</text>
</g>
</g>
</svg>
