<?xml version="1.0" encoding="UTF-8" standalone="no"?>
<!DOCTYPE svg PUBLIC "-//W3C//DTD SVG 1.1//EN"
 "http://www.w3.org/Graphics/SVG/1.1/DTD/svg11.dtd">
<!-- Generated by graphviz version 2.43.0 (0)
 -->
<!-- Title: ContinuousTesting Pages: 1 -->
<svg width="508pt" height="351pt"
 viewBox="0.00 0.00 508.00 351.00" xmlns="http://www.w3.org/2000/svg" xmlns:xlink="http://www.w3.org/1999/xlink">
<g id="graph0" class="graph" transform="scale(1 1) rotate(0) translate(4 347)">
<title>ContinuousTesting</title>
<polygon fill="white" stroke="transparent" points="-4,4 -4,-347 504,-347 504,4 -4,4"/>
<g id="clust1" class="cluster">
<title>cluster_0</title>
<polygon fill="none" stroke="white" points="8,-8 8,-335 492,-335 492,-8 8,-8"/>
<text text-anchor="middle" x="250" y="-319.8" font-family="Times,serif" font-size="14.00">Continuous Testing</text>
</g>
<!-- Automate_Unit_Tests -->
<g id="node1" class="node">
<title>Automate_Unit_Tests</title>
<path fill="none" stroke="black" d="M472,-304C472,-304 352,-304 352,-304 346,-304 340,-298 340,-292 340,-292 340,-244 340,-244 340,-238 346,-232 352,-232 352,-232 472,-232 472,-232 478,-232 484,-238 484,-244 484,-244 484,-292 484,-292 484,-298 478,-304 472,-304"/>
<text text-anchor="middle" x="412" y="-271" font-family="Arial" font-size="10.00">Automate</text>
<text text-anchor="middle" x="412" y="-260" font-family="Arial" font-size="10.00">Unit Tests</text>
</g>
<!-- Automate_Component_Tests -->
<g id="node2" class="node">
<title>Automate_Component_Tests</title>
<path fill="none" stroke="black" d="M472,-196C472,-196 352,-196 352,-196 346,-196 340,-190 340,-184 340,-184 340,-136 340,-136 340,-130 346,-124 352,-124 352,-124 472,-124 472,-124 478,-124 484,-130 484,-136 484,-136 484,-184 484,-184 484,-190 478,-196 472,-196"/>
<text text-anchor="middle" x="412" y="-163" font-family="Arial" font-size="10.00">Automate</text>
<text text-anchor="middle" x="412" y="-152" font-family="Arial" font-size="10.00">Component Tests</text>
</g>
<!-- Automate_Unit_Tests&#45;&gt;Automate_Component_Tests -->
<!-- Automate_System_Tests -->
<g id="node3" class="node">
<title>Automate_System_Tests</title>
<path fill="none" stroke="black" d="M472,-88C472,-88 352,-88 352,-88 346,-88 340,-82 340,-76 340,-76 340,-28 340,-28 340,-22 346,-16 352,-16 352,-16 472,-16 472,-16 478,-16 484,-22 484,-28 484,-28 484,-76 484,-76 484,-82 478,-88 472,-88"/>
<text text-anchor="middle" x="412" y="-55" font-family="Arial" font-size="10.00">Automate</text>
<text text-anchor="middle" x="412" y="-44" font-family="Arial" font-size="10.00">System Tests</text>
</g>
<!-- Automate_Component_Tests&#45;&gt;Automate_System_Tests -->
<!-- Automate_Functional_Tests -->
<g id="node4" class="node">
<title>Automate_Functional_Tests</title>
<path fill="none" stroke="black" d="M310,-304C310,-304 190,-304 190,-304 184,-304 178,-298 178,-292 178,-292 178,-244 178,-244 178,-238 184,-232 190,-232 190,-232 310,-232 310,-232 316,-232 322,-238 322,-244 322,-244 322,-292 322,-292 322,-298 316,-304 310,-304"/>
<text text-anchor="middle" x="250" y="-271" font-family="Arial" font-size="10.00">Automate</text>
<text text-anchor="middle" x="250" y="-260" font-family="Arial" font-size="10.00">Functional Tests</text>
</g>
<!-- Categorize_Developer_Tests -->
<g id="node5" class="node">
<title>Categorize_Developer_Tests</title>
<path fill="none" stroke="black" d="M310,-196C310,-196 190,-196 190,-196 184,-196 178,-190 178,-184 178,-184 178,-136 178,-136 178,-130 184,-124 190,-124 190,-124 310,-124 310,-124 316,-124 322,-130 322,-136 322,-136 322,-184 322,-184 322,-190 316,-196 310,-196"/>
<text text-anchor="middle" x="250" y="-163" font-family="Arial" font-size="10.00">Categorize</text>
<text text-anchor="middle" x="250" y="-152" font-family="Arial" font-size="10.00">Developer Tests</text>
</g>
<!-- Automate_Functional_Tests&#45;&gt;Categorize_Developer_Tests -->
<!-- Run_Faster_Tests_First -->
<g id="node6" class="node">
<title>Run_Faster_Tests_First</title>
<path fill="none" stroke="black" d="M310,-88C310,-88 190,-88 190,-88 184,-88 178,-82 178,-76 178,-76 178,-28 178,-28 178,-22 184,-16 190,-16 190,-16 310,-16 310,-16 316,-16 322,-22 322,-28 322,-28 322,-76 322,-76 322,-82 316,-88 310,-88"/>
<text text-anchor="middle" x="250" y="-55" font-family="Arial" font-size="10.00">Run Faster</text>
<text text-anchor="middle" x="250" y="-44" font-family="Arial" font-size="10.00">Tests First</text>
</g>
<!-- Categorize_Developer_Tests&#45;&gt;Run_Faster_Tests_First -->
<!-- Write_Tests_for_Defects -->
<g id="node7" class="node">
<title>Write_Tests_for_Defects</title>
<path fill="none" stroke="black" d="M148,-304C148,-304 28,-304 28,-304 22,-304 16,-298 16,-292 16,-292 16,-244 16,-244 16,-238 22,-232 28,-232 28,-232 148,-232 148,-232 154,-232 160,-238 160,-244 160,-244 160,-292 160,-292 160,-298 154,-304 148,-304"/>
<text text-anchor="middle" x="88" y="-271" font-family="Arial" font-size="10.00">Write Tests</text>
<text text-anchor="middle" x="88" y="-260" font-family="Arial" font-size="10.00">for Defects</text>
</g>
<!-- Make_Component_Tests_Repeatable -->
<g id="node8" class="node">
<title>Make_Component_Tests_Repeatable</title>
<path fill="none" stroke="black" d="M148,-196C148,-196 28,-196 28,-196 22,-196 16,-190 16,-184 16,-184 16,-136 16,-136 16,-130 22,-124 28,-124 28,-124 148,-124 148,-124 154,-124 160,-130 160,-136 160,-136 160,-184 160,-184 160,-190 154,-196 148,-196"/>
<text text-anchor="middle" x="88" y="-163" font-family="Arial" font-size="10.00">Make Component Tests</text>
<text text-anchor="middle" x="88" y="-152" font-family="Arial" font-size="10.00">Repeatable</text>
</g>
<!-- Write_Tests_for_Defects&#45;&gt;Make_Component_Tests_Repeatable -->
<!-- Limit_Test_Cases_to_One_Asset -->
<g id="node9" class="node">
<title>Limit_Test_Cases_to_One_Asset</title>
<path fill="none" stroke="black" d="M148,-88C148,-88 28,-88 28,-88 22,-88 16,-82 16,-76 16,-76 16,-28 16,-28 16,-22 22,-16 28,-16 28,-16 148,-16 148,-16 154,-16 160,-22 160,-28 160,-28 160,-76 160,-76 160,-82 154,-88 148,-88"/>
<text text-anchor="middle" x="88" y="-55" font-family="Arial" font-size="10.00">Limit Test Cases</text>
<text text-anchor="middle" x="88" y="-44" font-family="Arial" font-size="10.00">to One Asset</text>
</g>
<!-- Make_Component_Tests_Repeatable&#45;&gt;Limit_Test_Cases_to_One_Asset -->
</g>
</svg>
