<?xml version="1.0" encoding="UTF-8" standalone="no"?>
<!DOCTYPE svg PUBLIC "-//W3C//DTD SVG 1.1//EN"
 "http://www.w3.org/Graphics/SVG/1.1/DTD/svg11.dtd">
<!-- Generated by graphviz version 2.43.0 (0)
 -->
<!-- Title: LocalDatabaseSandbox Pages: 1 -->
<svg width="617pt" height="286pt"
 viewBox="0.00 0.00 617.00 286.00" xmlns="http://www.w3.org/2000/svg" xmlns:xlink="http://www.w3.org/1999/xlink">
<g id="graph0" class="graph" transform="scale(1 1) rotate(0) translate(4 282)">
<title>LocalDatabaseSandbox</title>
<polygon fill="white" stroke="transparent" points="-4,4 -4,-282 613,-282 613,4 -4,4"/>
<text text-anchor="middle" x="304.5" y="-261.2" font-family="Times,serif" font-size="16.00">Each Developer Uses a Local Database Sandbox</text>
<!-- SQL_Scripts1 -->
<g id="node1" class="node">
<title>SQL_Scripts1</title>
<polygon fill="lightgray" stroke="black" points="146.5,-252 143.5,-256 122.5,-256 119.5,-252 44.5,-252 44.5,-216 146.5,-216 146.5,-252"/>
<text text-anchor="middle" x="95.5" y="-230.3" font-family="Times,serif" font-size="14.00">SQL Scripts</text>
</g>
<!-- Build_Scripts1 -->
<g id="node4" class="node">
<title>Build_Scripts1</title>
<polygon fill="white" stroke="black" points="150.5,-180 40.5,-180 40.5,-144 150.5,-144 150.5,-180"/>
<text text-anchor="middle" x="95.5" y="-158.3" font-family="Times,serif" font-size="14.00">Build Scripts</text>
</g>
<!-- SQL_Scripts1&#45;&gt;Build_Scripts1 -->
<g id="edge1" class="edge">
<title>SQL_Scripts1&#45;&gt;Build_Scripts1</title>
<path fill="none" stroke="black" d="M95.5,-215.7C95.5,-207.98 95.5,-198.71 95.5,-190.11"/>
<polygon fill="black" stroke="black" points="99,-190.1 95.5,-180.1 92,-190.1 99,-190.1"/>
</g>
<!-- SQL_Scripts2 -->
<g id="node2" class="node">
<title>SQL_Scripts2</title>
<polygon fill="lightgray" stroke="black" points="355.5,-252 352.5,-256 331.5,-256 328.5,-252 253.5,-252 253.5,-216 355.5,-216 355.5,-252"/>
<text text-anchor="middle" x="304.5" y="-230.3" font-family="Times,serif" font-size="14.00">SQL Scripts</text>
</g>
<!-- Build_Scripts2 -->
<g id="node5" class="node">
<title>Build_Scripts2</title>
<polygon fill="white" stroke="black" points="359.5,-180 249.5,-180 249.5,-144 359.5,-144 359.5,-180"/>
<text text-anchor="middle" x="304.5" y="-158.3" font-family="Times,serif" font-size="14.00">Build Scripts</text>
</g>
<!-- SQL_Scripts2&#45;&gt;Build_Scripts2 -->
<g id="edge2" class="edge">
<title>SQL_Scripts2&#45;&gt;Build_Scripts2</title>
<path fill="none" stroke="black" d="M304.5,-215.7C304.5,-207.98 304.5,-198.71 304.5,-190.11"/>
<polygon fill="black" stroke="black" points="308,-190.1 304.5,-180.1 301,-190.1 308,-190.1"/>
</g>
<!-- SQL_Scripts3 -->
<g id="node3" class="node">
<title>SQL_Scripts3</title>
<polygon fill="lightgray" stroke="black" points="564.5,-252 561.5,-256 540.5,-256 537.5,-252 462.5,-252 462.5,-216 564.5,-216 564.5,-252"/>
<text text-anchor="middle" x="513.5" y="-230.3" font-family="Times,serif" font-size="14.00">SQL Scripts</text>
</g>
<!-- Build_Scripts3 -->
<g id="node6" class="node">
<title>Build_Scripts3</title>
<polygon fill="white" stroke="black" points="568.5,-180 458.5,-180 458.5,-144 568.5,-144 568.5,-180"/>
<text text-anchor="middle" x="513.5" y="-158.3" font-family="Times,serif" font-size="14.00">Build Scripts</text>
</g>
<!-- SQL_Scripts3&#45;&gt;Build_Scripts3 -->
<g id="edge3" class="edge">
<title>SQL_Scripts3&#45;&gt;Build_Scripts3</title>
<path fill="none" stroke="black" d="M513.5,-215.7C513.5,-207.98 513.5,-198.71 513.5,-190.11"/>
<polygon fill="black" stroke="black" points="517,-190.1 513.5,-180.1 510,-190.1 517,-190.1"/>
</g>
<!-- Local_DB1 -->
<g id="node7" class="node">
<title>Local_DB1</title>
<path fill="lightblue" stroke="black" d="M191,-104.73C191,-106.53 148.2,-108 95.5,-108 42.8,-108 0,-106.53 0,-104.73 0,-104.73 0,-75.27 0,-75.27 0,-73.47 42.8,-72 95.5,-72 148.2,-72 191,-73.47 191,-75.27 191,-75.27 191,-104.73 191,-104.73"/>
<path fill="none" stroke="black" d="M191,-104.73C191,-102.92 148.2,-101.45 95.5,-101.45 42.8,-101.45 0,-102.92 0,-104.73"/>
<text text-anchor="middle" x="95.5" y="-86.3" font-family="Times,serif" font-size="14.00">Local Database Sandbox</text>
</g>
<!-- Build_Scripts1&#45;&gt;Local_DB1 -->
<g id="edge4" class="edge">
<title>Build_Scripts1&#45;&gt;Local_DB1</title>
<path fill="none" stroke="black" d="M95.5,-143.7C95.5,-135.98 95.5,-126.71 95.5,-118.11"/>
<polygon fill="black" stroke="black" points="99,-118.1 95.5,-108.1 92,-118.1 99,-118.1"/>
</g>
<!-- Local_DB2 -->
<g id="node8" class="node">
<title>Local_DB2</title>
<path fill="lightblue" stroke="black" d="M400,-104.73C400,-106.53 357.2,-108 304.5,-108 251.8,-108 209,-106.53 209,-104.73 209,-104.73 209,-75.27 209,-75.27 209,-73.47 251.8,-72 304.5,-72 357.2,-72 400,-73.47 400,-75.27 400,-75.27 400,-104.73 400,-104.73"/>
<path fill="none" stroke="black" d="M400,-104.73C400,-102.92 357.2,-101.45 304.5,-101.45 251.8,-101.45 209,-102.92 209,-104.73"/>
<text text-anchor="middle" x="304.5" y="-86.3" font-family="Times,serif" font-size="14.00">Local Database Sandbox</text>
</g>
<!-- Build_Scripts2&#45;&gt;Local_DB2 -->
<g id="edge5" class="edge">
<title>Build_Scripts2&#45;&gt;Local_DB2</title>
<path fill="none" stroke="black" d="M304.5,-143.7C304.5,-135.98 304.5,-126.71 304.5,-118.11"/>
<polygon fill="black" stroke="black" points="308,-118.1 304.5,-108.1 301,-118.1 308,-118.1"/>
</g>
<!-- Local_DB3 -->
<g id="node9" class="node">
<title>Local_DB3</title>
<path fill="lightblue" stroke="black" d="M609,-104.73C609,-106.53 566.2,-108 513.5,-108 460.8,-108 418,-106.53 418,-104.73 418,-104.73 418,-75.27 418,-75.27 418,-73.47 460.8,-72 513.5,-72 566.2,-72 609,-73.47 609,-75.27 609,-75.27 609,-104.73 609,-104.73"/>
<path fill="none" stroke="black" d="M609,-104.73C609,-102.92 566.2,-101.45 513.5,-101.45 460.8,-101.45 418,-102.92 418,-104.73"/>
<text text-anchor="middle" x="513.5" y="-86.3" font-family="Times,serif" font-size="14.00">Local Database Sandbox</text>
</g>
<!-- Build_Scripts3&#45;&gt;Local_DB3 -->
<g id="edge6" class="edge">
<title>Build_Scripts3&#45;&gt;Local_DB3</title>
<path fill="none" stroke="black" d="M513.5,-143.7C513.5,-135.98 513.5,-126.71 513.5,-118.11"/>
<polygon fill="black" stroke="black" points="517,-118.1 513.5,-108.1 510,-118.1 517,-118.1"/>
</g>
<!-- Developer1 -->
<g id="node10" class="node">
<title>Developer1</title>
<polygon fill="transparent" stroke="transparent" points="140,-36 51,-36 51,0 140,0 140,-36"/>
<text text-anchor="middle" x="95.5" y="-14.3" font-family="Times,serif" font-size="14.00">Developer</text>
</g>
<!-- Local_DB1&#45;&gt;Developer1 -->
<g id="edge7" class="edge">
<title>Local_DB1&#45;&gt;Developer1</title>
<path fill="none" stroke="black" d="M95.5,-71.7C95.5,-63.98 95.5,-54.71 95.5,-46.11"/>
<polygon fill="black" stroke="black" points="99,-46.1 95.5,-36.1 92,-46.1 99,-46.1"/>
</g>
<!-- Developer2 -->
<g id="node11" class="node">
<title>Developer2</title>
<polygon fill="transparent" stroke="transparent" points="349,-36 260,-36 260,0 349,0 349,-36"/>
<text text-anchor="middle" x="304.5" y="-14.3" font-family="Times,serif" font-size="14.00">Developer</text>
</g>
<!-- Local_DB2&#45;&gt;Developer2 -->
<g id="edge8" class="edge">
<title>Local_DB2&#45;&gt;Developer2</title>
<path fill="none" stroke="black" d="M304.5,-71.7C304.5,-63.98 304.5,-54.71 304.5,-46.11"/>
<polygon fill="black" stroke="black" points="308,-46.1 304.5,-36.1 301,-46.1 308,-46.1"/>
</g>
<!-- Developer3 -->
<g id="node12" class="node">
<title>Developer3</title>
<polygon fill="transparent" stroke="transparent" points="558,-36 469,-36 469,0 558,0 558,-36"/>
<text text-anchor="middle" x="513.5" y="-14.3" font-family="Times,serif" font-size="14.00">Developer</text>
</g>
<!-- Local_DB3&#45;&gt;Developer3 -->
<g id="edge9" class="edge">
<title>Local_DB3&#45;&gt;Developer3</title>
<path fill="none" stroke="black" d="M513.5,-71.7C513.5,-63.98 513.5,-54.71 513.5,-46.11"/>
<polygon fill="black" stroke="black" points="517,-46.1 513.5,-36.1 510,-46.1 517,-46.1"/>
</g>
</g>
</svg>
