<?xml version="1.0" encoding="UTF-8" standalone="no"?>
<!DOCTYPE svg PUBLIC "-//W3C//DTD SVG 1.1//EN"
 "http://www.w3.org/Graphics/SVG/1.1/DTD/svg11.dtd">
<!-- Generated by graphviz version 2.43.0 (0)
 -->
<!-- Title: ContinuousInspection Pages: 1 -->
<svg width="550pt" height="243pt"
 viewBox="0.00 0.00 550.00 243.00" xmlns="http://www.w3.org/2000/svg" xmlns:xlink="http://www.w3.org/1999/xlink">
<g id="graph0" class="graph" transform="scale(1 1) rotate(0) translate(4 239)">
<title>ContinuousInspection</title>
<polygon fill="white" stroke="transparent" points="-4,4 -4,-239 546,-239 546,4 -4,4"/>
<g id="clust1" class="cluster">
<title>cluster_0</title>
<polygon fill="none" stroke="white" points="8,-8 8,-227 534,-227 534,-8 8,-8"/>
<text text-anchor="middle" x="271" y="-211.8" font-family="Times,serif" font-size="14.00">Continuous Inspection</text>
</g>
<!-- Reduce_Code_Complexity -->
<g id="node1" class="node">
<title>Reduce_Code_Complexity</title>
<path fill="none" stroke="black" d="M162,-196C162,-196 28,-196 28,-196 22,-196 16,-190 16,-184 16,-184 16,-136 16,-136 16,-130 22,-124 28,-124 28,-124 162,-124 162,-124 168,-124 174,-130 174,-136 174,-136 174,-184 174,-184 174,-190 168,-196 162,-196"/>
<text text-anchor="middle" x="95" y="-163" font-family="Arial" font-size="10.00">Reduce Code</text>
<text text-anchor="middle" x="95" y="-152" font-family="Arial" font-size="10.00">Complexity</text>
</g>
<!-- Perform_Design_Reviews -->
<g id="node2" class="node">
<title>Perform_Design_Reviews</title>
<path fill="none" stroke="black" d="M338,-196C338,-196 204,-196 204,-196 198,-196 192,-190 192,-184 192,-184 192,-136 192,-136 192,-130 198,-124 204,-124 204,-124 338,-124 338,-124 344,-124 350,-130 350,-136 350,-136 350,-184 350,-184 350,-190 344,-196 338,-196"/>
<text text-anchor="middle" x="271" y="-163" font-family="Arial" font-size="10.00">Perform Design</text>
<text text-anchor="middle" x="271" y="-152" font-family="Arial" font-size="10.00">Reviews Continuously</text>
</g>
<!-- Reduce_Code_Complexity&#45;&gt;Perform_Design_Reviews -->
<!-- Reduce_Duplicate_Code -->
<g id="node4" class="node">
<title>Reduce_Duplicate_Code</title>
<path fill="none" stroke="black" d="M162,-88C162,-88 28,-88 28,-88 22,-88 16,-82 16,-76 16,-76 16,-28 16,-28 16,-22 22,-16 28,-16 28,-16 162,-16 162,-16 168,-16 174,-22 174,-28 174,-28 174,-76 174,-76 174,-82 168,-88 162,-88"/>
<text text-anchor="middle" x="95" y="-55" font-family="Arial" font-size="10.00">Reduce</text>
<text text-anchor="middle" x="95" y="-44" font-family="Arial" font-size="10.00">Duplicate Code</text>
</g>
<!-- Reduce_Code_Complexity&#45;&gt;Reduce_Duplicate_Code -->
<!-- Maintain_Standards -->
<g id="node3" class="node">
<title>Maintain_Standards</title>
<path fill="none" stroke="black" d="M514,-196C514,-196 380,-196 380,-196 374,-196 368,-190 368,-184 368,-184 368,-136 368,-136 368,-130 374,-124 380,-124 380,-124 514,-124 514,-124 520,-124 526,-130 526,-136 526,-136 526,-184 526,-184 526,-190 520,-196 514,-196"/>
<text text-anchor="middle" x="447" y="-163" font-family="Arial" font-size="10.00">Maintain Organizational</text>
<text text-anchor="middle" x="447" y="-152" font-family="Arial" font-size="10.00">Standards with Code Audits</text>
</g>
<!-- Perform_Design_Reviews&#45;&gt;Maintain_Standards -->
<!-- Assess_Code_Coverage -->
<g id="node5" class="node">
<title>Assess_Code_Coverage</title>
<path fill="none" stroke="black" d="M338,-88C338,-88 204,-88 204,-88 198,-88 192,-82 192,-76 192,-76 192,-28 192,-28 192,-22 198,-16 204,-16 204,-16 338,-16 338,-16 344,-16 350,-22 350,-28 350,-28 350,-76 350,-76 350,-82 344,-88 338,-88"/>
<text text-anchor="middle" x="271" y="-55" font-family="Arial" font-size="10.00">Assess Code</text>
<text text-anchor="middle" x="271" y="-44" font-family="Arial" font-size="10.00">Coverage</text>
</g>
<!-- Perform_Design_Reviews&#45;&gt;Assess_Code_Coverage -->
<!-- Maintain_Code_Quality -->
<g id="node6" class="node">
<title>Maintain_Code_Quality</title>
<path fill="none" stroke="black" d="M514,-88C514,-88 380,-88 380,-88 374,-88 368,-82 368,-76 368,-76 368,-28 368,-28 368,-22 374,-16 380,-16 380,-16 514,-16 514,-16 520,-16 526,-22 526,-28 526,-28 526,-76 526,-76 526,-82 520,-88 514,-88"/>
<text text-anchor="middle" x="447" y="-55" font-family="Arial" font-size="10.00">Maintain Code</text>
<text text-anchor="middle" x="447" y="-44" font-family="Arial" font-size="10.00">Quality Consistently</text>
</g>
<!-- Maintain_Standards&#45;&gt;Maintain_Code_Quality -->
<!-- Reduce_Duplicate_Code&#45;&gt;Assess_Code_Coverage -->
<!-- Assess_Code_Coverage&#45;&gt;Maintain_Code_Quality -->
</g>
</svg>
