<?xml version="1.0" encoding="UTF-8" standalone="no"?>
<!DOCTYPE svg PUBLIC "-//W3C//DTD SVG 1.1//EN"
 "http://www.w3.org/Graphics/SVG/1.1/DTD/svg11.dtd">
<!-- Generated by graphviz version 2.43.0 (0)
 -->
<!-- Title: SequenceDiagram Pages: 1 -->
<svg width="1840pt" height="192pt"
 viewBox="0.00 0.00 1840.00 192.00" xmlns="http://www.w3.org/2000/svg" xmlns:xlink="http://www.w3.org/1999/xlink">
<g id="graph0" class="graph" transform="scale(1 1) rotate(0) translate(4 188)">
<title>SequenceDiagram</title>
<polygon fill="white" stroke="transparent" points="-4,4 -4,-188 1836,-188 1836,4 -4,4"/>
<text text-anchor="middle" x="916" y="-168.8" font-family="Times,serif" font-size="14.00">Sequence Diagram: Steps in a Continuous Integration (CI) Scenario</text>
<g id="clust1" class="cluster">
<title>cluster_Lifelines</title>
</g>
<!-- Developer -->
<g id="node1" class="node">
<title>Developer</title>
<path fill="none" stroke="black" d="M1820,-36C1820,-36 1755,-36 1755,-36 1749,-36 1743,-30 1743,-24 1743,-24 1743,-12 1743,-12 1743,-6 1749,0 1755,0 1755,0 1820,0 1820,0 1826,0 1832,-6 1832,-12 1832,-12 1832,-24 1832,-24 1832,-30 1826,-36 1820,-36"/>
<text text-anchor="middle" x="1787.5" y="-14.3" font-family="Times,serif" font-size="14.00">Developer</text>
</g>
<!-- VersionControl -->
<g id="node2" class="node">
<title>VersionControl</title>
<path fill="lightblue" stroke="black" d="M225,-67.73C225,-69.53 178.16,-71 120.5,-71 62.84,-71 16,-69.53 16,-67.73 16,-67.73 16,-38.27 16,-38.27 16,-36.47 62.84,-35 120.5,-35 178.16,-35 225,-36.47 225,-38.27 225,-38.27 225,-67.73 225,-67.73"/>
<path fill="none" stroke="black" d="M225,-67.73C225,-65.92 178.16,-64.45 120.5,-64.45 62.84,-64.45 16,-65.92 16,-67.73"/>
<text text-anchor="middle" x="120.5" y="-49.3" font-family="Times,serif" font-size="14.00">Version Control Repository</text>
</g>
<!-- Developer&#45;&gt;VersionControl -->
<g id="edge1" class="edge">
<title>Developer&#45;&gt;VersionControl</title>
<path fill="none" stroke="black" d="M1742.89,-15.1C1669.61,-10.49 1517.13,-2 1388,-2 576.5,-2 576.5,-2 576.5,-2 455.83,-2 318.27,-19.93 226.29,-34.53"/>
<polygon fill="black" stroke="black" points="225.46,-31.12 216.14,-36.16 226.57,-38.03 225.46,-31.12"/>
<text text-anchor="middle" x="1078.5" y="-5.8" font-family="Times,serif" font-size="14.00">Step 1: Commit Code Changes</text>
</g>
<!-- CIServer -->
<g id="node3" class="node">
<title>CIServer</title>
<path fill="none" stroke="orange" d="M709,-92C709,-92 446,-92 446,-92 440,-92 434,-86 434,-80 434,-80 434,-68 434,-68 434,-62 440,-56 446,-56 446,-56 709,-56 709,-56 715,-56 721,-62 721,-68 721,-68 721,-80 721,-80 721,-86 715,-92 709,-92"/>
<text text-anchor="middle" x="577.5" y="-70.3" font-family="Times,serif" font-size="14.00">CI Server (Integration Build Machine)</text>
</g>
<!-- VersionControl&#45;&gt;CIServer -->
<g id="edge2" class="edge">
<title>VersionControl&#45;&gt;CIServer</title>
<path fill="none" stroke="black" d="M225.18,-50.31C281.66,-49.6 352.73,-49.97 416,-54 421.04,-54.32 426.16,-54.7 431.33,-55.12"/>
<polygon fill="black" stroke="black" points="431.05,-58.6 441.32,-55.97 431.65,-51.63 431.05,-58.6"/>
<text text-anchor="middle" x="329.5" y="-57.8" font-family="Times,serif" font-size="14.00">Step 2: Poll for Changes</text>
</g>
<!-- VersionControl&#45;&gt;CIServer -->
<!-- BuildScript -->
<g id="node4" class="node">
<title>BuildScript</title>
<polygon fill="lightyellow" stroke="black" points="1123.5,-71 1027.5,-71 1027.5,-35 1129.5,-35 1129.5,-65 1123.5,-71"/>
<polyline fill="none" stroke="black" points="1123.5,-71 1123.5,-65 "/>
<polyline fill="none" stroke="black" points="1129.5,-65 1123.5,-65 "/>
<text text-anchor="middle" x="1078.5" y="-49.3" font-family="Times,serif" font-size="14.00">Build Script</text>
</g>
<!-- CIServer&#45;&gt;BuildScript -->
<g id="edge3" class="edge">
<title>CIServer&#45;&gt;BuildScript</title>
<path fill="none" stroke="black" d="M713.68,-55.97C722.24,-55.2 730.73,-54.53 739,-54 836.21,-47.82 949.43,-49.22 1017.19,-50.98"/>
<polygon fill="black" stroke="black" points="1017.16,-54.48 1027.25,-51.25 1017.35,-47.48 1017.16,-54.48"/>
<text text-anchor="middle" x="845" y="-57.8" font-family="Times,serif" font-size="14.00">Step 3: Execute Build Script</text>
</g>
<!-- CIServer&#45;&gt;BuildScript -->
<!-- FeedbackMechanism -->
<g id="node5" class="node">
<title>FeedbackMechanism</title>
<polygon fill="lightgray" stroke="black" points="1549,-71 1291.29,-71 1225,-35 1482.71,-35 1549,-71"/>
<text text-anchor="middle" x="1387" y="-49.3" font-family="Times,serif" font-size="14.00">Feedback Mechanism</text>
</g>
<!-- CIServer&#45;&gt;FeedbackMechanism -->
<g id="edge5" class="edge">
<title>CIServer&#45;&gt;FeedbackMechanism</title>
<path fill="none" stroke="black" d="M669.41,-92C692.05,-95.73 716.33,-99.11 739,-101 928.75,-116.85 1150.02,-90.84 1278.45,-71.34"/>
<polygon fill="black" stroke="black" points="1279.32,-74.74 1288.67,-69.77 1278.26,-67.82 1279.32,-74.74"/>
<text text-anchor="middle" x="1078.5" y="-106.8" font-family="Times,serif" font-size="14.00">Step 5: Generate Feedback</text>
</g>
<!-- BuildScript&#45;&gt;CIServer -->
<g id="edge4" class="edge">
<title>BuildScript&#45;&gt;CIServer</title>
<path fill="none" stroke="black" d="M1027.31,-64.27C1004.2,-68.9 976.34,-73.71 951,-76 879.01,-82.49 798.89,-82.93 731.44,-81.37"/>
<polygon fill="black" stroke="black" points="731.24,-77.87 721.16,-81.12 731.07,-84.86 731.24,-77.87"/>
<text text-anchor="middle" x="845" y="-85.8" font-family="Times,serif" font-size="14.00">Step 4: Compile, Test, Deploy</text>
</g>
<!-- BuildScript&#45;&gt;FeedbackMechanism -->
<!-- FeedbackMechanism&#45;&gt;Developer -->
<g id="edge6" class="edge">
<title>FeedbackMechanism&#45;&gt;Developer</title>
<path fill="none" stroke="black" d="M1498.21,-43.32C1574.64,-36.61 1673.09,-27.96 1732.91,-22.71"/>
<polygon fill="black" stroke="black" points="1733.24,-26.19 1742.89,-21.83 1732.63,-19.22 1733.24,-26.19"/>
<text text-anchor="middle" x="1646" y="-39.8" font-family="Times,serif" font-size="14.00">Step 6: Notify Results</text>
</g>
</g>
</svg>
