<?xml version="1.0" encoding="UTF-8" standalone="no"?>
<!DOCTYPE svg PUBLIC "-//W3C//DTD SVG 1.1//EN"
 "http://www.w3.org/Graphics/SVG/1.1/DTD/svg11.dtd">
<!-- Generated by graphviz version 2.43.0 (0)
 -->
<!-- Title: DatabaseIntegrationDesign Pages: 1 -->
<svg width="911pt" height="626pt"
 viewBox="0.00 0.00 911.00 625.50" xmlns="http://www.w3.org/2000/svg" xmlns:xlink="http://www.w3.org/1999/xlink">
<g id="graph0" class="graph" transform="scale(1 1) rotate(0) translate(4 621.5)">
<title>DatabaseIntegrationDesign</title>
<polygon fill="white" stroke="transparent" points="-4,4 -4,-621.5 907,-621.5 907,4 -4,4"/>
<text text-anchor="middle" x="451.5" y="-602.3" font-family="Times,serif" font-size="14.00">Database Integration Design in Continuous Integration (CI)</text>
<!-- Developer1 -->
<g id="node1" class="node">
<title>Developer1</title>
<path fill="none" stroke="black" d="M354.5,-594.5C354.5,-594.5 224.5,-594.5 224.5,-594.5 218.5,-594.5 212.5,-588.5 212.5,-582.5 212.5,-582.5 212.5,-568.5 212.5,-568.5 212.5,-562.5 218.5,-556.5 224.5,-556.5 224.5,-556.5 354.5,-556.5 354.5,-556.5 360.5,-556.5 366.5,-562.5 366.5,-568.5 366.5,-568.5 366.5,-582.5 366.5,-582.5 366.5,-588.5 360.5,-594.5 354.5,-594.5"/>
<text text-anchor="middle" x="289.5" y="-579.3" font-family="Times,serif" font-size="14.00">Developer 1</text>
<text text-anchor="middle" x="289.5" y="-564.3" font-family="Times,serif" font-size="14.00">(Commits changes)</text>
</g>
<!-- VersionControl -->
<g id="node4" class="node">
<title>VersionControl</title>
<path fill="none" stroke="blue" d="M566,-500.85C566,-503.49 519.16,-505.63 461.5,-505.63 403.84,-505.63 357,-503.49 357,-500.85 357,-500.85 357,-457.9 357,-457.9 357,-455.26 403.84,-453.12 461.5,-453.12 519.16,-453.12 566,-455.26 566,-457.9 566,-457.9 566,-500.85 566,-500.85"/>
<path fill="none" stroke="blue" d="M566,-500.85C566,-498.22 519.16,-496.08 461.5,-496.08 403.84,-496.08 357,-498.22 357,-500.85"/>
<text text-anchor="middle" x="461.5" y="-483.18" font-family="Times,serif" font-size="14.00">Version Control Repository</text>
<text text-anchor="middle" x="461.5" y="-468.18" font-family="Times,serif" font-size="14.00">(e.g., Subversion, Git)</text>
</g>
<!-- Developer1&#45;&gt;VersionControl -->
<g id="edge1" class="edge">
<title>Developer1&#45;&gt;VersionControl</title>
<path fill="none" stroke="black" d="M301.81,-556.28C309.97,-545.43 321.53,-532.14 334.5,-523.5 343.09,-517.78 352.52,-512.74 362.23,-508.33"/>
<polygon fill="black" stroke="black" points="363.81,-511.46 371.61,-504.29 361.04,-505.03 363.81,-511.46"/>
<text text-anchor="middle" x="396" y="-527.3" font-family="Times,serif" font-size="14.00">Commit Changes</text>
</g>
<!-- Developer2 -->
<g id="node2" class="node">
<title>Developer2</title>
<path fill="none" stroke="black" d="M526.5,-594.5C526.5,-594.5 396.5,-594.5 396.5,-594.5 390.5,-594.5 384.5,-588.5 384.5,-582.5 384.5,-582.5 384.5,-568.5 384.5,-568.5 384.5,-562.5 390.5,-556.5 396.5,-556.5 396.5,-556.5 526.5,-556.5 526.5,-556.5 532.5,-556.5 538.5,-562.5 538.5,-568.5 538.5,-568.5 538.5,-582.5 538.5,-582.5 538.5,-588.5 532.5,-594.5 526.5,-594.5"/>
<text text-anchor="middle" x="461.5" y="-579.3" font-family="Times,serif" font-size="14.00">Developer 2</text>
<text text-anchor="middle" x="461.5" y="-564.3" font-family="Times,serif" font-size="14.00">(Commits changes)</text>
</g>
<!-- Developer2&#45;&gt;VersionControl -->
<g id="edge2" class="edge">
<title>Developer2&#45;&gt;VersionControl</title>
<path fill="none" stroke="black" d="M461.5,-556.35C461.5,-544.86 461.5,-529.61 461.5,-515.79"/>
<polygon fill="black" stroke="black" points="465,-515.58 461.5,-505.58 458,-515.58 465,-515.58"/>
<text text-anchor="middle" x="523" y="-527.3" font-family="Times,serif" font-size="14.00">Commit Changes</text>
</g>
<!-- Developer3 -->
<g id="node3" class="node">
<title>Developer3</title>
<path fill="none" stroke="black" d="M698.5,-594.5C698.5,-594.5 568.5,-594.5 568.5,-594.5 562.5,-594.5 556.5,-588.5 556.5,-582.5 556.5,-582.5 556.5,-568.5 556.5,-568.5 556.5,-562.5 562.5,-556.5 568.5,-556.5 568.5,-556.5 698.5,-556.5 698.5,-556.5 704.5,-556.5 710.5,-562.5 710.5,-568.5 710.5,-568.5 710.5,-582.5 710.5,-582.5 710.5,-588.5 704.5,-594.5 698.5,-594.5"/>
<text text-anchor="middle" x="633.5" y="-579.3" font-family="Times,serif" font-size="14.00">Developer 3</text>
<text text-anchor="middle" x="633.5" y="-564.3" font-family="Times,serif" font-size="14.00">(Commits changes)</text>
</g>
<!-- Developer3&#45;&gt;VersionControl -->
<g id="edge3" class="edge">
<title>Developer3&#45;&gt;VersionControl</title>
<path fill="none" stroke="black" d="M621.19,-556.28C613.03,-545.43 601.47,-532.14 588.5,-523.5 579.91,-517.78 570.48,-512.74 560.77,-508.33"/>
<polygon fill="black" stroke="black" points="561.96,-505.03 551.39,-504.29 559.19,-511.46 561.96,-505.03"/>
<text text-anchor="middle" x="666" y="-527.3" font-family="Times,serif" font-size="14.00">Commit Changes</text>
</g>
<!-- CIServer -->
<g id="node5" class="node">
<title>CIServer</title>
<path fill="none" stroke="orange" d="M589.5,-402.25C589.5,-402.25 333.5,-402.25 333.5,-402.25 327.5,-402.25 321.5,-396.25 321.5,-390.25 321.5,-390.25 321.5,-376.25 321.5,-376.25 321.5,-370.25 327.5,-364.25 333.5,-364.25 333.5,-364.25 589.5,-364.25 589.5,-364.25 595.5,-364.25 601.5,-370.25 601.5,-376.25 601.5,-376.25 601.5,-390.25 601.5,-390.25 601.5,-396.25 595.5,-402.25 589.5,-402.25"/>
<text text-anchor="middle" x="461.5" y="-387.05" font-family="Times,serif" font-size="14.00">CI Server</text>
<text text-anchor="middle" x="461.5" y="-372.05" font-family="Times,serif" font-size="14.00">(Polls repository and triggers builds)</text>
</g>
<!-- VersionControl&#45;&gt;CIServer -->
<g id="edge4" class="edge">
<title>VersionControl&#45;&gt;CIServer</title>
<path fill="none" stroke="black" d="M461.5,-453.15C461.5,-440.64 461.5,-425.49 461.5,-412.59"/>
<polygon fill="black" stroke="black" points="465,-412.38 461.5,-402.38 458,-412.38 465,-412.38"/>
<text text-anchor="middle" x="520.5" y="-424.05" font-family="Times,serif" font-size="14.00">Poll for Changes</text>
</g>
<!-- BuildScript -->
<g id="node6" class="node">
<title>BuildScript</title>
<polygon fill="lightyellow" stroke="black" points="549,-313.25 368,-313.25 368,-230.25 555,-230.25 555,-307.25 549,-313.25"/>
<polyline fill="none" stroke="black" points="549,-313.25 549,-307.25 "/>
<polyline fill="none" stroke="black" points="555,-307.25 549,-307.25 "/>
<text text-anchor="middle" x="461.5" y="-298.05" font-family="Times,serif" font-size="14.00">Build Script</text>
<text text-anchor="middle" x="461.5" y="-283.05" font-family="Times,serif" font-size="14.00">&#45; Compile Source Code</text>
<text text-anchor="middle" x="461.5" y="-268.05" font-family="Times,serif" font-size="14.00">&#45; Run Tests, Inspections</text>
<text text-anchor="middle" x="461.5" y="-253.05" font-family="Times,serif" font-size="14.00">&#45; Deploy Software</text>
<text text-anchor="middle" x="461.5" y="-238.05" font-family="Times,serif" font-size="14.00">&#45; Integrate Database</text>
</g>
<!-- CIServer&#45;&gt;BuildScript -->
<g id="edge5" class="edge">
<title>CIServer&#45;&gt;BuildScript</title>
<path fill="none" stroke="black" d="M461.5,-364.17C461.5,-353.12 461.5,-338.39 461.5,-323.98"/>
<polygon fill="black" stroke="black" points="465,-323.61 461.5,-313.61 458,-323.61 465,-323.61"/>
<text text-anchor="middle" x="535.5" y="-335.05" font-family="Times,serif" font-size="14.00">Execute Build Script</text>
</g>
<!-- Database -->
<g id="node7" class="node">
<title>Database</title>
<path fill="none" stroke="purple" d="M151,-47.6C151,-50.24 117.16,-52.38 75.5,-52.38 33.84,-52.38 0,-50.24 0,-47.6 0,-47.6 0,-4.65 0,-4.65 0,-2.01 33.84,0.13 75.5,0.13 117.16,0.13 151,-2.01 151,-4.65 151,-4.65 151,-47.6 151,-47.6"/>
<path fill="none" stroke="purple" d="M151,-47.6C151,-44.97 117.16,-42.83 75.5,-42.83 33.84,-42.83 0,-44.97 0,-47.6"/>
<text text-anchor="middle" x="75.5" y="-29.93" font-family="Times,serif" font-size="14.00">Database</text>
<text text-anchor="middle" x="75.5" y="-14.93" font-family="Times,serif" font-size="14.00">(e.g., RDS, Aurora)</text>
</g>
<!-- BuildScript&#45;&gt;Database -->
<g id="edge6" class="edge">
<title>BuildScript&#45;&gt;Database</title>
<path fill="none" stroke="black" d="M367.55,-262.14C263.38,-250.41 105.14,-225.41 68.5,-179.25 42.43,-146.41 51.35,-95.88 61.91,-62.17"/>
<polygon fill="black" stroke="black" points="65.36,-62.89 65.2,-52.29 58.72,-60.67 65.36,-62.89"/>
<text text-anchor="middle" x="157.5" y="-137.55" font-family="Times,serif" font-size="14.00">Apply Database Changes</text>
</g>
<!-- FeedbackMechanism -->
<g id="node8" class="node">
<title>FeedbackMechanism</title>
<polygon fill="lightblue" stroke="black" points="667.63,-179.25 339.72,-179.25 255.37,-103.25 583.28,-103.25 667.63,-179.25"/>
<text text-anchor="middle" x="461.5" y="-145.05" font-family="Times,serif" font-size="14.00">Feedback Mechanism</text>
<text text-anchor="middle" x="461.5" y="-130.05" font-family="Times,serif" font-size="14.00">(e.g., Email Notifications)</text>
</g>
<!-- BuildScript&#45;&gt;FeedbackMechanism -->
<g id="edge7" class="edge">
<title>BuildScript&#45;&gt;FeedbackMechanism</title>
<path fill="none" stroke="black" d="M461.5,-230.09C461.5,-217.33 461.5,-203.12 461.5,-189.92"/>
<polygon fill="black" stroke="black" points="465,-189.59 461.5,-179.59 458,-189.59 465,-189.59"/>
<text text-anchor="middle" x="531" y="-201.05" font-family="Times,serif" font-size="14.00">Generate Feedback</text>
</g>
<!-- DatabaseScripts -->
<g id="node9" class="node">
<title>DatabaseScripts</title>
<polygon fill="none" stroke="black" points="903,-175.25 686,-175.25 686,-171.25 682,-171.25 682,-167.25 686,-167.25 686,-115.25 682,-115.25 682,-111.25 686,-111.25 686,-107.25 903,-107.25 903,-175.25"/>
<polyline fill="none" stroke="black" points="686,-171.25 690,-171.25 690,-167.25 686,-167.25 "/>
<polyline fill="none" stroke="black" points="686,-115.25 690,-115.25 690,-111.25 686,-111.25 "/>
<text text-anchor="middle" x="794.5" y="-160.05" font-family="Times,serif" font-size="14.00">Database Scripts</text>
<text text-anchor="middle" x="794.5" y="-145.05" font-family="Times,serif" font-size="14.00">&#45; Drop/Create Tables</text>
<text text-anchor="middle" x="794.5" y="-130.05" font-family="Times,serif" font-size="14.00">&#45; Insert Test Data</text>
<text text-anchor="middle" x="794.5" y="-115.05" font-family="Times,serif" font-size="14.00">&#45; Apply Procedures/Triggers</text>
</g>
<!-- BuildScript&#45;&gt;DatabaseScripts -->
<g id="edge8" class="edge">
<title>BuildScript&#45;&gt;DatabaseScripts</title>
<path fill="none" stroke="black" d="M555.15,-234.61C600.22,-217.22 654.18,-196.4 699.44,-178.93"/>
<polygon fill="black" stroke="black" points="700.89,-182.12 708.96,-175.26 698.37,-175.59 700.89,-182.12"/>
<text text-anchor="middle" x="674.5" y="-201.05" font-family="Times,serif" font-size="14.00">Trigger</text>
</g>
<!-- DatabaseScripts&#45;&gt;Database -->
<g id="edge9" class="edge">
<title>DatabaseScripts&#45;&gt;Database</title>
<path fill="none" stroke="black" d="M693.11,-107.2C687.52,-105.77 681.95,-104.44 676.5,-103.25 495.28,-63.69 278.52,-42.51 161.19,-33.16"/>
<polygon fill="black" stroke="black" points="161.43,-29.67 151.19,-32.37 160.88,-36.64 161.43,-29.67"/>
<text text-anchor="middle" x="632" y="-74.05" font-family="Times,serif" font-size="14.00">Apply Changes</text>
</g>
</g>
</svg>
